<svg width="15" height="15" viewBox="0 0 15 15" fill="none" xmlns="http://www.w3.org/2000/svg">
<path d="M4.25475 0C4.39399 0 4.52752 0.0553123 4.62598 0.153769C4.72444 0.252226 4.77975 0.385761 4.77975 0.525V1.50675H10.4175V0.53175C10.4175 0.392511 10.4728 0.258976 10.5713 0.160519C10.6697 0.0620623 10.8033 0.00675 10.9425 0.00675C11.0817 0.00675 11.2153 0.0620623 11.3137 0.160519C11.4122 0.258976 11.4675 0.392511 11.4675 0.53175V1.50675H13.5C13.8977 1.50675 14.2791 1.66468 14.5604 1.94582C14.8417 2.22697 14.9998 2.60831 15 3.006V13.5007C14.9998 13.8984 14.8417 14.2798 14.5604 14.5609C14.2791 14.8421 13.8977 15 13.5 15H1.5C1.10231 15 0.720888 14.8421 0.439605 14.5609C0.158322 14.2798 0.000198847 13.8984 0 13.5007L0 3.006C0.000198847 2.60831 0.158322 2.22697 0.439605 1.94582C0.720888 1.66468 1.10231 1.50675 1.5 1.50675H3.72975V0.52425C3.72995 0.385141 3.78535 0.251798 3.88378 0.153504C3.98222 0.0552092 4.11564 -1.41948e-07 4.25475 0V0ZM1.05 5.8065V13.5007C1.05 13.5598 1.06164 13.6184 1.08425 13.673C1.10687 13.7276 1.14002 13.7772 1.1818 13.8189C1.22359 13.8607 1.2732 13.8939 1.32779 13.9165C1.38239 13.9391 1.44091 13.9507 1.5 13.9508H13.5C13.5591 13.9507 13.6176 13.9391 13.6722 13.9165C13.7268 13.8939 13.7764 13.8607 13.8182 13.8189C13.86 13.7772 13.8931 13.7276 13.9157 13.673C13.9384 13.6184 13.95 13.5598 13.95 13.5007V5.817L1.05 5.8065ZM5.00025 10.9643V12.2137H3.75V10.9643H5.00025ZM8.12475 10.9643V12.2137H6.87525V10.9643H8.12475ZM11.25 10.9643V12.2137H9.99975V10.9643H11.25ZM5.00025 7.9815V9.231H3.75V7.9815H5.00025ZM8.12475 7.9815V9.231H6.87525V7.9815H8.12475ZM11.25 7.9815V9.231H9.99975V7.9815H11.25ZM3.72975 2.556H1.5C1.44091 2.556 1.38239 2.56764 1.32779 2.59025C1.2732 2.61287 1.22359 2.64602 1.1818 2.6878C1.14002 2.72959 1.10687 2.7792 1.08425 2.83379C1.06164 2.88839 1.05 2.94691 1.05 3.006V4.75725L13.95 4.76775V3.006C13.95 2.94691 13.9384 2.88839 13.9157 2.83379C13.8931 2.7792 13.86 2.72959 13.8182 2.6878C13.7764 2.64602 13.7268 2.61287 13.6722 2.59025C13.6176 2.56764 13.5591 2.556 13.5 2.556H11.4675V3.25275C11.4675 3.39199 11.4122 3.52552 11.3137 3.62398C11.2153 3.72244 11.0817 3.77775 10.9425 3.77775C10.8033 3.77775 10.6697 3.72244 10.5713 3.62398C10.4728 3.52552 10.4175 3.39199 10.4175 3.25275V2.556H4.77975V3.246C4.77975 3.38524 4.72444 3.51877 4.62598 3.61723C4.52752 3.71569 4.39399 3.771 4.25475 3.771C4.11551 3.771 3.98198 3.71569 3.88352 3.61723C3.78506 3.51877 3.72975 3.38524 3.72975 3.246V2.556Z" fill="black"/>
</svg>
