<svg width="12" height="18" viewBox="0 0 12 18" fill="none" xmlns="http://www.w3.org/2000/svg">
<path fill-rule="evenodd" clip-rule="evenodd" d="M10 4C10 5.06087 9.57857 6.07828 8.82843 6.82843C8.07828 7.57857 7.06087 8 6 8C4.93913 8 3.92172 7.57857 3.17157 6.82843C2.42143 6.07828 2 5.06087 2 4C2 2.93913 2.42143 1.92172 3.17157 1.17157C3.92172 0.421427 4.93913 0 6 0C7.06087 0 8.07828 0.421427 8.82843 1.17157C9.57857 1.92172 10 2.93913 10 4ZM8 4C8 4.53043 7.78929 5.03914 7.41421 5.41421C7.03914 5.78929 6.53043 6 6 6C5.46957 6 4.96086 5.78929 4.58579 5.41421C4.21071 5.03914 4 4.53043 4 4C4 3.46957 4.21071 2.96086 4.58579 2.58579C4.96086 2.21071 5.46957 2 6 2C6.53043 2 7.03914 2.21071 7.41421 2.58579C7.78929 2.96086 8 3.46957 8 4Z" fill="white"/>
<path d="M10 12C10 11.7348 9.89464 11.4804 9.70711 11.2929C9.51957 11.1054 9.26522 11 9 11H3C2.73478 11 2.48043 11.1054 2.29289 11.2929C2.10536 11.4804 2 11.7348 2 12V18H0V12C0 11.2044 0.316071 10.4413 0.87868 9.87868C1.44129 9.31607 2.20435 9 3 9H9C9.79565 9 10.5587 9.31607 11.1213 9.87868C11.6839 10.4413 12 11.2044 12 12V18H10V12Z" fill="white"/>
</svg>
