<svg width="17" height="15" viewBox="0 0 17 15" fill="none" xmlns="http://www.w3.org/2000/svg">
<path d="M1.15385 5.76928H15V4.61543C15 4.30941 14.8784 4.01593 14.662 3.79954C14.4457 3.58315 14.1522 3.46159 13.8462 3.46159H2.30769C2.00167 3.46159 1.70819 3.58315 1.4918 3.79954C1.27541 4.01593 1.15385 4.30941 1.15385 4.61543V5.76928ZM1.15385 6.92312V12.6924C1.15385 12.9984 1.27541 13.2919 1.4918 13.5082C1.70819 13.7246 2.00167 13.8462 2.30769 13.8462H13.8462C14.1522 13.8462 14.4457 13.7246 14.662 13.5082C14.8784 13.2919 15 12.9984 15 12.6924V6.92312H1.15385ZM2.30769 2.30774H13.8462C14.4582 2.30774 15.0452 2.55087 15.4779 2.98365C15.9107 3.41642 16.1538 4.00339 16.1538 4.61543V12.6924C16.1538 13.3044 15.9107 13.8914 15.4779 14.3241C15.0452 14.7569 14.4582 15 13.8462 15H2.30769C1.69565 15 1.10868 14.7569 0.675907 14.3241C0.243131 13.8914 0 13.3044 0 12.6924V4.61543C0 4.00339 0.243131 3.41642 0.675907 2.98365C1.10868 2.55087 1.69565 2.30774 2.30769 2.30774Z" fill="#A0A0A0"/>
<path d="M5.76908 1.15385V2.30769H10.3845V1.15385H5.76908ZM5.76908 0H10.3845C10.6905 0 10.984 0.121566 11.2004 0.337954C11.4167 0.554342 11.5383 0.847827 11.5383 1.15385V2.30769C11.5383 2.61371 11.4167 2.9072 11.2004 3.12358C10.984 3.33997 10.6905 3.46154 10.3845 3.46154H5.76908C5.46306 3.46154 5.16958 3.33997 4.95319 3.12358C4.7368 2.9072 4.61523 2.61371 4.61523 2.30769V1.15385C4.61523 0.847827 4.7368 0.554342 4.95319 0.337954C5.16958 0.121566 5.46306 0 5.76908 0Z" fill="#A0A0A0"/>
</svg>
