<svg width="37" height="25" viewBox="0 0 37 25" fill="none" xmlns="http://www.w3.org/2000/svg">
<path d="M36.3636 12.5C36.3636 12.5 29.5455 0 18.1818 0C6.81818 0 0 12.5 0 12.5C0 12.5 6.81818 25 18.1818 25C29.5455 25 36.3636 12.5 36.3636 12.5ZM2.66591 12.5C3.76481 10.8298 5.02873 9.27429 6.43864 7.85682C9.36364 4.92727 13.3636 2.27273 18.1818 2.27273C23 2.27273 26.9977 4.92727 29.9273 7.85682C31.3372 9.27429 32.6011 10.8298 33.7 12.5C33.5682 12.6977 33.4227 12.9159 33.2568 13.1545C32.4955 14.2455 31.3705 15.7 29.9273 17.1432C26.9977 20.0727 22.9977 22.7273 18.1818 22.7273C13.3636 22.7273 9.36591 20.0727 6.43636 17.1432C5.02647 15.7257 3.76255 14.1702 2.66364 12.5H2.66591Z" fill="#DC1E2A"/>
<path d="M18.1816 6.81814C16.6747 6.81814 15.2295 7.41676 14.1639 8.4823C13.0984 9.54785 12.4998 10.993 12.4998 12.5C12.4998 14.0069 13.0984 15.4521 14.1639 16.5176C15.2295 17.5832 16.6747 18.1818 18.1816 18.1818C19.6885 18.1818 21.1337 17.5832 22.1992 16.5176C23.2648 15.4521 23.8634 14.0069 23.8634 12.5C23.8634 10.993 23.2648 9.54785 22.1992 8.4823C21.1337 7.41676 19.6885 6.81814 18.1816 6.81814ZM10.2271 12.5C10.2271 10.3903 11.0651 8.36701 12.5569 6.87524C14.0487 5.38348 16.0719 4.54541 18.1816 4.54541C20.2913 4.54541 22.3145 5.38348 23.8063 6.87524C25.2981 8.36701 26.1361 10.3903 26.1361 12.5C26.1361 14.6096 25.2981 16.6329 23.8063 18.1247C22.3145 19.6164 20.2913 20.4545 18.1816 20.4545C16.0719 20.4545 14.0487 19.6164 12.5569 18.1247C11.0651 16.6329 10.2271 14.6096 10.2271 12.5Z" fill="#DC1E2A"/>
</svg>
