<svg width="30" height="30" viewBox="0 0 30 30" fill="none" xmlns="http://www.w3.org/2000/svg">
<path d="M11.3793 0C10.8414 0 10.2828 0.186207 9.88966 0.57931C9.49655 0.972414 9.31034 1.53103 9.31034 2.06897V3.10345H0V23.7931H11.5862C11.4517 23.131 11.3793 22.4379 11.3793 21.7241H2.06897V14.9379C2.67931 15.2897 3.38276 15.5172 4.13793 15.5172H13.4586C14.0379 14.731 14.7414 14.0276 15.5276 13.4483H4.13793C2.9069 13.4483 2.06897 12.6103 2.06897 11.3793V5.17241H24.8276V11.3793C24.8276 11.5448 24.8172 11.7 24.7862 11.8448C25.531 12.0724 26.2345 12.3828 26.8966 12.7655V3.10345H17.5862V2.06897C17.5862 1.53103 17.4 0.972414 17.0069 0.57931C16.6138 0.186207 16.0552 0 15.5172 0H11.3793ZM11.3793 2.06897H15.5172V3.10345H11.3793V2.06897ZM6.2069 9.31034V12.4138H8.27586V9.31034H6.2069ZM18.6207 9.31034V11.8552C19.2943 11.6446 19.9875 11.5025 20.6897 11.431V9.31034H18.6207ZM21.7241 13.4483C17.1621 13.4483 13.4483 17.1621 13.4483 21.7241C13.4483 26.2862 17.1621 30 21.7241 30C26.2862 30 30 26.2862 30 21.7241C30 17.1621 26.2862 13.4483 21.7241 13.4483ZM21.7241 15.5172C25.1586 15.5172 27.931 18.2897 27.931 21.7241C27.931 25.1586 25.1586 27.931 21.7241 27.931C18.2897 27.931 15.5172 25.1586 15.5172 21.7241C15.5172 18.2897 18.2897 15.5172 21.7241 15.5172ZM20.6897 16.5517V22.7586H25.8621V20.6897H22.7586V16.5517H20.6897Z" fill="#0369CF"/>
</svg>
