<svg width="32" height="32" viewBox="0 0 32 32" fill="none" xmlns="http://www.w3.org/2000/svg">
<path d="M19.3333 21V24.3333C19.3333 24.7754 19.1577 25.1993 18.8452 25.5118C18.5326 25.8244 18.1087 26 17.6667 26H6L1 31V14.3333C1 13.8913 1.17559 13.4674 1.48816 13.1548C1.80072 12.8423 2.22464 12.6667 2.66667 12.6667H6M31 19.3333L26 14.3333H14.3333C13.8913 14.3333 13.4674 14.1577 13.1548 13.8452C12.8423 13.5326 12.6667 13.1087 12.6667 12.6667V2.66667C12.6667 2.22464 12.8423 1.80072 13.1548 1.48816C13.4674 1.17559 13.8913 1 14.3333 1H29.3333C29.7754 1 30.1993 1.17559 30.5118 1.48816C30.8244 1.80072 31 2.22464 31 2.66667V19.3333Z" stroke="#FF6C07" stroke-width="2" stroke-linecap="round" stroke-linejoin="round"/>
</svg>
