<svg width="8" height="5" viewBox="0 0 8 5" fill="none" xmlns="http://www.w3.org/2000/svg">
<path d="M6.75302 0.631683C6.83489 0.551738 6.94479 0.506982 7.05922 0.506982C7.17367 0.506982 7.28358 0.551755 7.36546 0.631727L7.62888 0.889033L7.49045 0.889033C7.49216 0.904477 7.49302 0.920034 7.49302 0.935635C7.49302 0.992321 7.48166 1.04843 7.45962 1.10066C7.43758 1.15287 7.40534 1.20012 7.36473 1.23966C7.36472 1.23967 7.36469 1.2397 7.36468 1.23971L4.15819 4.36479L4.15818 4.36479L4.05349 4.25737C3.99718 4.31226 3.92165 4.34298 3.84302 4.34298C3.76438 4.34298 3.68886 4.31226 3.63254 4.25737L6.75302 0.631683ZM6.75302 0.631683C6.75301 0.631697 6.75299 0.631712 6.75298 0.631727L3.84303 3.46833M6.75302 0.631683L3.84303 3.46833M3.84303 3.46833L0.933661 0.631727L3.84303 3.46833ZM0.321355 1.23971L3.52784 4.36479L0.828848 0.739032C0.774995 0.686431 0.702702 0.656982 0.627421 0.656982C0.552141 0.656982 0.479847 0.686431 0.425994 0.739032L0.321355 0.631559C0.321297 0.631615 0.32124 0.631671 0.321182 0.631727C0.280647 0.671238 0.248426 0.718459 0.226415 0.770612C0.204372 0.822837 0.193017 0.87895 0.193017 0.935635C0.193017 0.992319 0.204372 1.04843 0.226416 1.10066C0.248447 1.15286 0.28071 1.20012 0.321301 1.23966C0.321319 1.23968 0.321337 1.23969 0.321355 1.23971Z" fill="#8C8C8C" stroke="#8C8C8C" stroke-width="0.3"/>
</svg>
