<svg width="14" height="13" viewBox="0 0 14 13" fill="none" xmlns="http://www.w3.org/2000/svg">
<path d="M1.36842 13C0.992105 13 0.67007 12.8661 0.402316 12.5984C0.134105 12.3302 0 12.0079 0 11.6316V4.10526C0 3.72895 0.134105 3.40691 0.402316 3.13916C0.67007 2.87095 0.992105 2.73684 1.36842 2.73684H4.10526V1.36842C4.10526 0.992105 4.23937 0.669842 4.50758 0.401632C4.77533 0.133877 5.09737 0 5.47368 0H8.21053C8.58684 0 8.90911 0.133877 9.17732 0.401632C9.44507 0.669842 9.57895 0.992105 9.57895 1.36842V2.73684H12.3158C12.6921 2.73684 13.0144 2.87095 13.2826 3.13916C13.5503 3.40691 13.6842 3.72895 13.6842 4.10526V11.6316C13.6842 12.0079 13.5503 12.3302 13.2826 12.5984C13.0144 12.8661 12.6921 13 12.3158 13H1.36842ZM5.47368 2.73684H8.21053V1.36842H5.47368V2.73684ZM12.3158 8.89474H8.89474V10.2632H4.78947V8.89474H1.36842V11.6316H12.3158V8.89474ZM6.1579 8.89474H7.52632V7.52632H6.1579V8.89474ZM1.36842 7.52632H4.78947V6.1579H8.89474V7.52632H12.3158V4.10526H1.36842V7.52632Z" fill="#AFAFAF"/>
</svg>
