<svg width="18" height="16" viewBox="0 0 18 16" fill="none" xmlns="http://www.w3.org/2000/svg">
<path d="M16 3.55556H12.4444V1.77778L10.6667 0H7.11111L5.33333 1.77778V3.55556H1.77778C0.8 3.55556 0 4.35556 0 5.33333V9.77778C0 10.4444 0.355556 11.0044 0.888889 11.3156V14.2222C0.888889 15.2089 1.68 16 2.66667 16H15.1111C16.0978 16 16.8889 15.2089 16.8889 14.2222V11.3067C17.4133 10.9956 17.7778 10.4267 17.7778 9.77778V5.33333C17.7778 4.35556 16.9778 3.55556 16 3.55556ZM7.11111 1.77778H10.6667V3.55556H7.11111V1.77778ZM1.77778 5.33333H16V9.77778H11.5556V7.11111H6.22222V9.77778H1.77778V5.33333ZM9.77778 10.6667H8V8.88889H9.77778V10.6667ZM15.1111 14.2222H2.66667V11.5556H6.22222V12.4444H11.5556V11.5556H15.1111V14.2222Z" fill="#3E9FFF"/>
</svg>
