<svg width="13" height="20" viewBox="0 0 13 20" fill="none" xmlns="http://www.w3.org/2000/svg">
<path d="M0 17.5V20H12.5V17.5C12.5 16.1458 12.1094 14.8763 11.3281 13.6914C10.5469 12.5065 9.54427 11.6927 8.32031 11.25V10.3516C9.07552 9.96094 9.68099 9.39453 10.1367 8.65234C10.5924 7.91016 10.8203 7.10938 10.8203 6.25V4.57031C10.8203 3.32031 10.3711 2.24609 9.47266 1.34766C8.57422 0.449219 7.5 0 6.25 0C5 0 3.91927 0.449219 3.00781 1.34766C2.09635 2.24609 1.64062 3.32031 1.64062 4.57031V6.25C1.64062 7.10938 1.86849 7.91016 2.32422 8.65234C2.77995 9.39453 3.38542 9.96094 4.14062 10.3516V11.25C2.94271 11.6927 1.95312 12.5 1.17188 13.6719C0.390625 14.8438 0 16.1198 0 17.5ZM10.8203 17.5V18.3203H1.64062V17.5C1.64062 16.5625 1.89453 15.6836 2.40234 14.8633C2.91016 14.043 3.58073 13.4245 4.41406 13.0078C4.77865 13.7891 5.39062 14.1797 6.25 14.1797C7.05729 14.1797 7.66927 13.7891 8.08594 13.0078C8.89323 13.4245 9.55078 14.0495 10.0586 14.8828C10.5664 15.7161 10.8203 16.5885 10.8203 17.5ZM9.0625 4.17969C7.05729 4.02344 5.48177 3.4375 4.33594 2.42188C4.90885 1.92708 5.54688 1.67969 6.25 1.67969C6.95312 1.67969 7.57812 1.92057 8.125 2.40234C8.67188 2.88411 8.98438 3.47656 9.0625 4.17969ZM3.32031 4.57031C3.32031 4.33594 3.3724 4.0625 3.47656 3.75C5.0651 5 6.95312 5.6901 9.14062 5.82031V6.25C9.14062 7.05729 8.85417 7.7474 8.28125 8.32031C7.70833 8.89323 7.03125 9.17969 6.25 9.17969C5.44271 9.17969 4.7526 8.89323 4.17969 8.32031C3.60677 7.7474 3.32031 7.05729 3.32031 6.25V4.57031ZM6.25 10.8203H6.64062V12.0703C6.64062 12.3568 6.51042 12.5 6.25 12.5C5.96354 12.5 5.82031 12.3568 5.82031 12.0703V10.8203H6.25Z" fill="black"/>
</svg>
