<svg width="25" height="20" viewBox="0 0 25 20" fill="none" xmlns="http://www.w3.org/2000/svg">
<path d="M3.75 0H21.25C22.2446 0 23.1984 0.395088 23.9017 1.09835C24.6049 1.80161 25 2.75544 25 3.75V16.25C25 17.2446 24.6049 18.1984 23.9017 18.9017C23.1984 19.6049 22.2446 20 21.25 20H3.75C2.75544 20 1.80161 19.6049 1.09835 18.9017C0.395088 18.1984 0 17.2446 0 16.25L0 3.75C0 2.75544 0.395088 1.80161 1.09835 1.09835C1.80161 0.395088 2.75544 0 3.75 0V0ZM3.75 2.5C3.41848 2.5 3.10054 2.6317 2.86612 2.86612C2.6317 3.10054 2.5 3.41848 2.5 3.75V16.25C2.5 16.5815 2.6317 16.8995 2.86612 17.1339C3.10054 17.3683 3.41848 17.5 3.75 17.5H21.25C21.5815 17.5 21.8995 17.3683 22.1339 17.1339C22.3683 16.8995 22.5 16.5815 22.5 16.25V3.75C22.5 3.41848 22.3683 3.10054 22.1339 2.86612C21.8995 2.6317 21.5815 2.5 21.25 2.5H3.75ZM17.3425 8.75C17.0645 9.8228 16.438 10.7729 15.5616 11.4512C14.6851 12.1294 13.6082 12.4974 12.5 12.4974C11.3918 12.4974 10.3149 12.1294 9.43842 11.4512C8.56196 10.7729 7.93555 9.8228 7.6575 8.75H2.5V6.25H22.5V8.75H17.3425ZM14.665 8.75H10.335C10.5544 9.13002 10.87 9.44559 11.2501 9.66499C11.6301 9.88439 12.0612 9.99989 12.5 9.99989C12.9388 9.99989 13.3699 9.88439 13.7499 9.66499C14.13 9.44559 14.4456 9.13002 14.665 8.75Z" fill="#3E9FFF"/>
</svg>
