<svg width="20" height="25" viewBox="0 0 20 25" fill="none" xmlns="http://www.w3.org/2000/svg">
<path d="M15 3.75V2.5C15 1.83696 14.7366 1.20107 14.2678 0.732233C13.7989 0.263392 13.163 0 12.5 0H7.5C6.83696 0 6.20107 0.263392 5.73223 0.732233C5.26339 1.20107 5 1.83696 5 2.5V3.75C3.67392 3.75 2.40215 4.27678 1.46447 5.21447C0.526784 6.15215 0 7.42392 0 8.75V22.5C0 23.163 0.263392 23.7989 0.732233 24.2678C1.20107 24.7366 1.83696 25 2.5 25H17.5C18.163 25 18.7989 24.7366 19.2678 24.2678C19.7366 23.7989 20 23.163 20 22.5V8.75C20 7.42392 19.4732 6.15215 18.5355 5.21447C17.5979 4.27678 16.3261 3.75 15 3.75ZM7.5 2.5H12.5V3.75H7.5V2.5ZM10 8.75L12.5 11.25L10 13.75L7.5 11.25L10 8.75ZM17.5 22.5H2.5V17.5H5V20H6.25V17.5H17.5V22.5ZM17.5 16.25H2.5V8.75C2.5 8.08696 2.76339 7.45107 3.23223 6.98223C3.70107 6.51339 4.33696 6.25 5 6.25H15C15.663 6.25 16.2989 6.51339 16.7678 6.98223C17.2366 7.45107 17.5 8.08696 17.5 8.75V16.25Z" fill="#3E9FFF"/>
</svg>
