<svg width="15" height="15" viewBox="0 0 15 15" fill="none" xmlns="http://www.w3.org/2000/svg">
<path d="M14.5564 6.13485H7.49511V9.03713H11.529C11.355 9.97524 10.8274 10.7687 10.0319 11.3003C9.35961 11.7498 8.50163 12.0156 7.49316 12.0156C5.54072 12.0156 3.88925 10.6964 3.29902 8.92378C3.15049 8.47427 3.0645 7.99349 3.0645 7.49902C3.0645 7.00456 3.15049 6.52378 3.29902 6.07427C3.89121 4.30358 5.54267 2.98436 7.49511 2.98436C8.59544 2.98436 9.58241 3.36352 10.3603 4.10619L12.5101 1.9544C11.2104 0.742671 9.51596 0 7.49511 0C4.56547 0 2.03062 1.68078 0.797394 4.1316C0.289251 5.14397 0 6.28925 0 7.50098C0 8.7127 0.289251 9.85603 0.797394 10.8684C2.03062 13.3192 4.56547 15 7.49511 15C9.51987 15 11.2163 14.3277 12.4554 13.1824C13.8723 11.8769 14.6912 9.95375 14.6912 7.66906C14.6912 7.13746 14.6443 6.62736 14.5564 6.13485Z" fill="#D93025"/>
</svg>
