<svg width="47" height="37" viewBox="0 0 47 37" fill="none" xmlns="http://www.w3.org/2000/svg">
<path d="M7.99916 3.83333H8L38.3333 3.83333L38.334 3.83333C39.0773 3.83236 39.8027 4.031 40.4367 4.4026L23.1667 15.6172L5.89639 4.40247C6.5304 4.03071 7.25585 3.83209 7.99916 3.83333ZM22.8944 19.414L23.6667 19.9155V19.2639L42.403 7.10071C42.4666 7.38952 42.5 7.69046 42.5 8V29C42.5 30.1051 42.061 31.1649 41.2796 31.9463C40.4982 32.7277 39.4384 33.1667 38.3333 33.1667H8C6.89493 33.1667 5.83512 32.7277 5.05372 31.9463C4.27232 31.1649 3.83333 30.1051 3.83333 29V8V7.9997C3.83315 7.69693 3.86607 7.39569 3.93109 7.10126L22.8944 19.414ZM38.3333 0.5H8C6.01088 0.5 4.10322 1.29018 2.6967 2.6967C1.29018 4.10322 0.5 6.01088 0.5 8V29C0.5 30.9891 1.29018 32.8968 2.6967 34.3033C4.10322 35.7098 6.01088 36.5 8 36.5H38.3333C40.3225 36.5 42.2301 35.7098 43.6366 34.3033C45.0432 32.8968 45.8333 30.9891 45.8333 29V8C45.8333 6.01088 45.0432 4.10322 43.6366 2.6967C42.2301 1.29018 40.3225 0.5 38.3333 0.5Z" fill="black" stroke="black"/>
</svg>
