<svg width="15" height="18" viewBox="0 0 15 18" fill="none" xmlns="http://www.w3.org/2000/svg">
<path d="M7.07171 10.2858C6.43598 10.2858 5.81453 10.0972 5.28595 9.74405C4.75736 9.39086 4.34538 8.88885 4.1021 8.30152C3.85881 7.71418 3.79516 7.0679 3.91918 6.44439C4.04321 5.82088 4.34934 5.24815 4.79887 4.79862C5.24839 4.3491 5.82112 4.04296 6.44463 3.91894C7.06814 3.79492 7.71443 3.85857 8.30176 4.10185C8.8891 4.34513 9.3911 4.75712 9.74429 5.2857C10.0975 5.81429 10.286 6.43574 10.286 7.07147C10.285 7.92363 9.946 8.74061 9.34343 9.34318C8.74085 9.94576 7.92388 10.2847 7.07171 10.2858ZM7.07171 5.14289C6.69027 5.14289 6.3174 5.256 6.00025 5.46792C5.6831 5.67983 5.43591 5.98103 5.28994 6.33343C5.14397 6.68583 5.10578 7.0736 5.18019 7.44771C5.25461 7.82182 5.43829 8.16546 5.708 8.43517C5.97772 8.70489 6.32136 8.88857 6.69546 8.96298C7.06957 9.03739 7.45734 8.9992 7.80974 8.85323C8.16214 8.70726 8.46334 8.46007 8.67526 8.14292C8.88717 7.82577 9.00028 7.4529 9.00028 7.07147C8.99977 6.56013 8.79642 6.06989 8.43485 5.70832C8.07328 5.34676 7.58304 5.1434 7.07171 5.14289Z" fill="black"/>
<path d="M7.07144 18L1.64829 11.6042C1.57294 11.5082 1.49836 11.4115 1.42458 11.3143C0.498209 10.094 -0.00223791 8.6035 7.52328e-06 7.07143C7.52328e-06 5.19597 0.745031 3.39732 2.07118 2.07117C3.39733 0.745024 5.19598 0 7.07144 0C8.9469 0 10.7455 0.745024 12.0717 2.07117C13.3978 3.39732 14.1429 5.19597 14.1429 7.07143C14.1451 8.60281 13.6449 10.0926 12.7189 11.3124L12.7183 11.3143C12.7183 11.3143 12.5254 11.5676 12.4965 11.6016L7.07144 18ZM2.45058 10.5396C2.45186 10.5396 2.60101 10.7376 2.63508 10.7801L7.07144 16.0123L11.5136 10.773C11.5419 10.7376 11.6923 10.5384 11.6929 10.5377C12.4497 9.54072 12.8586 8.32309 12.8572 7.07143C12.8572 5.53696 12.2476 4.06534 11.1626 2.98031C10.0775 1.89528 8.6059 1.28571 7.07144 1.28571C5.53697 1.28571 4.06535 1.89528 2.98032 2.98031C1.89529 4.06534 1.28572 5.53696 1.28572 7.07143C1.28437 8.32387 1.69379 9.54219 2.45122 10.5396H2.45058Z" fill="black"/>
</svg>
