<svg width="12" height="15" viewBox="0 0 12 15" fill="none" xmlns="http://www.w3.org/2000/svg">
<path d="M5.89287 8.57142C5.3631 8.57142 4.84522 8.41433 4.40473 8.12C3.96424 7.82568 3.62092 7.40734 3.41819 6.9179C3.21546 6.42845 3.16241 5.88988 3.26576 5.37029C3.36912 4.8507 3.62423 4.37342 3.99883 3.99882C4.37344 3.62421 4.85071 3.3691 5.3703 3.26575C5.8899 3.1624 6.42847 3.21544 6.91791 3.41817C7.40736 3.62091 7.82569 3.96423 8.12002 4.40472C8.41434 4.84521 8.57144 5.36308 8.57144 5.89285C8.57059 6.60299 8.28811 7.2838 7.78596 7.78595C7.28382 8.28809 6.60301 8.57057 5.89287 8.57142ZM5.89287 4.28571C5.575 4.28571 5.26428 4.37997 4.99999 4.55656C4.73569 4.73316 4.5297 4.98416 4.40806 5.27782C4.28642 5.57149 4.25459 5.89463 4.3166 6.20639C4.37862 6.51815 4.53168 6.80451 4.75645 7.02927C4.98121 7.25404 5.26757 7.4071 5.57933 7.46911C5.89108 7.53113 6.21423 7.4993 6.50789 7.37766C6.80156 7.25602 7.05256 7.05003 7.22916 6.78573C7.40575 6.52144 7.50001 6.21071 7.50001 5.89285C7.49958 5.46674 7.33012 5.05821 7.02882 4.7569C6.72751 4.45559 6.31898 4.28613 5.89287 4.28571Z" fill="#AFAFAF"/>
<path d="M5.89286 15L1.37358 9.67018C1.31078 9.59015 1.24864 9.50961 1.18715 9.42857C0.415174 8.41167 -0.00186492 7.16958 6.2694e-06 5.89286C6.2694e-06 4.32997 0.620859 2.8311 1.72598 1.72598C2.83111 0.620853 4.32998 0 5.89286 0C7.45575 0 8.95462 0.620853 10.0597 1.72598C11.1649 2.8311 11.7857 4.32997 11.7857 5.89286C11.7876 7.169 11.3707 8.41053 10.5991 9.42696L10.5986 9.42857C10.5986 9.42857 10.4379 9.63964 10.4138 9.66804L5.89286 15ZM2.04215 8.78304C2.04322 8.78304 2.16751 8.94804 2.1959 8.98339L5.89286 13.3436L9.59465 8.9775C9.61822 8.94804 9.74358 8.78196 9.74411 8.78143C10.3747 7.9506 10.7155 6.93591 10.7143 5.89286C10.7143 4.61413 10.2063 3.38779 9.30213 2.48359C8.39793 1.5794 7.17159 1.07143 5.89286 1.07143C4.61414 1.07143 3.38779 1.5794 2.4836 2.48359C1.57941 3.38779 1.07143 4.61413 1.07143 5.89286C1.07031 6.93656 1.41149 7.95183 2.04268 8.78304H2.04215Z" fill="#AFAFAF"/>
</svg>
