<svg width="44" height="54" viewBox="0 0 44 54" fill="none" xmlns="http://www.w3.org/2000/svg">
<path d="M22 29.5C26.1421 29.5 29.5 26.1421 29.5 22C29.5 17.8579 26.1421 14.5 22 14.5C17.8579 14.5 14.5 17.8579 14.5 22C14.5 26.1421 17.8579 29.5 22 29.5Z" stroke="black" stroke-width="4" stroke-linecap="round" stroke-linejoin="round"/>
<path d="M22 2C16.6957 2 11.6086 4.10714 7.85786 7.85786C4.10714 11.6086 2 16.6957 2 22C2 26.73 3.005 29.825 5.75 33.25L22 52L38.25 33.25C40.995 29.825 42 26.73 42 22C42 16.6957 39.8929 11.6086 36.1421 7.85786C32.3914 4.10714 27.3043 2 22 2V2Z" stroke="black" stroke-width="4" stroke-linecap="round" stroke-linejoin="round"/>
</svg>
