<svg width="171" height="51" viewBox="0 0 171 51" fill="none" xmlns="http://www.w3.org/2000/svg">
<path d="M110.948 50.1778C109.547 50.0305 108.199 49.7522 106.869 49.3103C106.466 49.163 106.448 49.163 106.448 48.7538C106.448 46.1187 106.448 43.4672 106.448 40.8321C106.448 40.7993 106.448 40.7502 106.448 40.7175C106.466 40.5047 106.483 40.4884 106.711 40.5702C107.306 40.7993 107.919 40.9957 108.549 41.1267C110.108 41.4704 111.631 41.4213 113.119 40.8157C114.397 40.3083 115.325 39.4081 116.008 38.2951C116.445 37.5586 116.761 36.7894 117.006 35.9383C116.813 35.9546 116.708 36.0528 116.585 36.1183C115.553 36.642 114.467 37.0676 113.294 37.2476C109.617 37.8369 106.623 36.7893 104.4 33.9414C103.367 32.6321 102.807 31.1426 102.562 29.5386C102.439 28.7694 102.404 28.0001 102.404 27.2309C102.404 21.9442 102.404 16.6412 102.404 11.3546C102.404 10.8308 102.334 10.8636 102.912 10.8636C106.151 10.8636 109.372 10.8636 112.611 10.8636C112.716 10.8636 112.804 10.8636 112.909 10.8636C113.066 10.8636 113.154 10.9127 113.136 11.0764C113.136 11.1746 113.136 11.2891 113.136 11.3873C113.136 15.9865 113.136 20.5857 113.136 25.1849C113.136 25.5941 113.171 25.9869 113.312 26.3798C113.574 27.0836 114.117 27.46 114.905 27.5255C115.08 27.5418 115.272 27.5418 115.447 27.5255C116.2 27.4927 116.708 27.1163 116.988 26.4943C117.163 26.1179 117.233 25.7087 117.251 25.3159C117.268 25.1031 117.268 24.8903 117.268 24.6939C117.268 20.2748 117.268 15.8556 117.268 11.4364C117.268 11.3382 117.268 11.2237 117.268 11.1255C117.251 10.9454 117.321 10.8472 117.531 10.8636C117.601 10.8636 117.671 10.8636 117.741 10.8636C120.998 10.8636 124.271 10.8636 127.528 10.8636C128.001 10.8636 128.001 10.8145 128.001 11.2728C128.001 19.0636 128.001 26.8544 128.001 34.6452C128.001 36.8548 127.651 39.0153 126.828 41.0939C125.182 45.1858 120.717 49.1139 115.342 49.9977C114.905 50.0632 114.45 50.1123 114.012 50.1778C113.889 50.2433 113.749 50.1941 113.609 50.2105C113.504 50.2105 113.399 50.2105 113.276 50.2105C113.154 50.2269 113.014 50.1778 112.909 50.2433C112.489 50.2433 112.068 50.2433 111.648 50.2433C111.543 50.1614 111.403 50.2269 111.281 50.2105C111.158 50.1941 111.035 50.2269 110.948 50.1778Z" fill="#02AAEB"/>
<path d="M15.5296 0.0613773C15.5296 0.192315 15.5296 0.323254 15.5296 0.454192C15.5296 8.55599 15.5296 16.6578 15.5296 24.7596C15.5296 27.0674 15.0744 29.277 13.9364 31.3392C12.6933 33.5652 10.9425 35.3492 8.49137 36.4295C5.95271 37.5261 3.32652 37.7061 0.647795 36.9532C0.437699 36.8877 0.245112 36.7732 0 36.8386C0 33.3033 0 29.7843 0 26.249C0.17508 26.1835 0.332652 26.249 0.490223 26.2818C0.700319 26.3472 0.910415 26.4127 1.13802 26.4454C2.24102 26.6582 3.15144 26.1672 3.5016 25.1688C3.76422 24.4486 3.81674 23.7121 3.81674 22.9592C3.81674 15.5612 3.81674 8.16318 3.81674 0.781537C3.81674 0.536028 3.74671 0.257785 3.9568 0.0286427C4.37699 -0.00409181 4.79719 0.0122755 5.21738 0.0122755C8.50888 0.0122755 11.8004 0.0122755 15.0919 0.0122755C15.2144 0.0122755 15.3895 -0.0368264 15.5296 0.0613773Z" fill="#628713"/>
<path d="M170.09 37.002C170.055 37.002 170.02 37.002 169.985 36.9856C169.845 36.8383 169.863 36.6419 169.863 36.4619C169.863 31.5353 169.863 26.6088 169.863 21.6986C169.863 21.5349 169.845 21.3549 169.933 21.2076C169.968 21.1585 170.02 21.1421 170.073 21.1585C170.09 26.4287 170.09 31.7154 170.09 37.002Z" fill="#ABE3F8"/>
<path d="M170.091 21.1585H170.056H170.021C169.845 20.9785 169.845 20.7985 170.021 20.6021C170.038 20.6021 170.073 20.6021 170.091 20.6021C170.091 20.7821 170.091 20.9621 170.091 21.1585Z" fill="#D2EFFB"/>
<path d="M113.557 50.1777C113.697 50.1777 113.837 50.1777 113.977 50.1777C113.977 50.2103 113.977 50.2266 113.977 50.2591C113.837 50.2591 113.697 50.2591 113.557 50.2591C113.522 50.2429 113.522 50.2266 113.539 50.2103C113.539 50.194 113.557 50.1777 113.557 50.1777Z" fill="#C1EAFA"/>
<path d="M110.948 50.1777C111.053 50.1777 111.176 50.1777 111.281 50.1777C111.316 50.194 111.316 50.2103 111.316 50.2266C111.298 50.2429 111.298 50.2591 111.281 50.2591C111.176 50.2591 111.053 50.2591 110.948 50.2591C110.948 50.2266 110.948 50.2103 110.948 50.1777Z" fill="#BBE8FA"/>
<path d="M111.281 50.2591C111.281 50.2428 111.281 50.2103 111.281 50.194C111.403 50.194 111.526 50.1452 111.631 50.2591C111.508 50.2591 111.403 50.2591 111.281 50.2591Z" fill="#6DCEF3"/>
<path d="M112.874 50.2591C112.961 50.1452 113.101 50.194 113.224 50.194C113.241 50.2103 113.259 50.2266 113.241 50.2428C113.224 50.2591 113.224 50.2591 113.206 50.2591C113.101 50.2591 112.996 50.2591 112.874 50.2591Z" fill="#2FB9EE"/>
<path d="M113.224 50.2595C113.224 50.2432 113.224 50.2106 113.224 50.1943C113.329 50.1943 113.452 50.1943 113.557 50.1943C113.557 50.2106 113.557 50.2432 113.557 50.2595C113.434 50.2595 113.329 50.2595 113.224 50.2595Z" fill="#6FCEF3"/>
<path d="M170.02 20.6024C170.02 20.7824 170.02 20.9624 170.02 21.1589C170.02 21.3225 170.003 21.4698 170.003 21.6335C170.003 26.5928 170.003 31.5357 170.003 36.495C170.003 36.6587 170.003 36.8387 169.985 37.0024C168.304 37.0024 166.624 37.0024 164.943 37.0024C163.244 37.0024 161.564 37.0024 159.865 37.0024C159.76 37.0024 159.673 37.0024 159.568 37.0024C159.41 37.0024 159.323 36.9533 159.34 36.806C159.34 36.7078 159.34 36.5932 159.34 36.495C159.34 31.863 159.34 27.2475 159.34 22.6155C159.34 22.0099 159.323 21.4207 159.165 20.8315C158.92 19.9477 158.22 19.5549 157.257 19.7513C156.749 19.8495 156.434 20.1604 156.206 20.586C155.996 20.9788 155.909 21.4044 155.874 21.8299C155.856 22.1245 155.839 22.4355 155.839 22.7301C155.839 27.3293 155.839 31.9285 155.839 36.5277C155.839 37.1006 155.856 37.0187 155.313 37.0187C152.074 37.0187 148.818 37.0187 145.579 37.0187C145.089 37.0187 145.124 37.0515 145.124 36.5932C145.124 31.994 145.124 27.3948 145.124 22.7956C145.124 22.1736 145.106 21.568 144.966 20.9624C144.949 20.8642 144.914 20.766 144.879 20.6678C144.686 20.0622 144.231 19.7676 143.583 19.7185C142.953 19.6694 142.463 19.8658 142.112 20.3732C141.85 20.7497 141.745 21.1916 141.675 21.6335C141.605 22.0918 141.587 22.5501 141.587 23.0084C141.587 27.5257 141.587 32.0267 141.587 36.5441C141.587 37.1169 141.657 37.0351 141.044 37.0351C137.805 37.0351 134.584 37.0351 131.345 37.0351C130.872 37.0351 130.89 37.0842 130.89 36.6259C130.89 31.3229 130.89 26.0199 130.89 20.7006C130.89 18.5237 131.397 16.4942 132.693 14.6774C134.164 12.5824 136.125 11.0111 138.733 10.3073C142.463 9.29258 145.877 9.98 148.905 12.2387C149.396 12.5988 149.868 12.9916 150.306 13.4335C150.464 13.5972 150.551 13.5644 150.709 13.4335C151.672 12.5824 152.705 11.8459 153.86 11.2239C155.086 10.5692 156.381 10.0618 157.799 9.94727C161.511 9.63629 164.733 10.602 167.271 13.2535C168.532 14.5792 169.25 16.1505 169.652 17.8527C169.862 18.7201 170.003 19.6531 170.02 20.6024Z" fill="#02AAEB"/>
<path d="M63.834 20.6352C63.834 20.4224 63.834 20.3078 63.834 20.1769C63.834 16.8216 63.834 13.4663 63.834 10.0947C63.834 10.0619 63.834 10.0128 63.834 9.98009C63.834 9.62001 63.834 9.65275 64.2017 9.62001C64.9895 9.55454 65.7599 9.48907 66.5478 9.48907C70.9423 9.45634 74.6014 11.0112 77.5428 14.0392C79.5037 16.0524 80.7642 18.3929 81.1844 21.0935C82.5676 29.8009 76.1771 35.5458 69.9793 36.8224C64.972 37.8536 60.42 36.9043 56.4632 33.8108C54.1696 32.0268 52.804 29.6863 52.0687 27.0021C51.6485 25.4635 51.4909 23.8923 51.4909 22.3047C51.4909 15.0703 51.4909 7.85235 51.4909 0.61801C51.4909 0.192461 51.4209 0.192461 51.9461 0.192461C55.2201 0.192461 58.4941 0.192461 61.7681 0.192461C62.2758 0.192461 62.2233 0.176093 62.2233 0.61801C62.2233 7.80324 62.2233 14.9885 62.2233 22.1901C62.2233 23.123 62.3283 24.0396 62.6435 24.9234C62.8361 25.4472 63.1162 25.9218 63.5189 26.331C64.2542 27.0512 65.1821 27.313 66.2151 27.3294C67.6508 27.3458 68.8238 26.822 69.6992 25.7418C71.3099 23.7777 70.382 20.4552 67.4407 19.7841C66.6178 19.6041 65.8299 19.6859 65.0596 20.0132C64.6569 20.1769 64.2892 20.406 63.834 20.6352Z" fill="#628713"/>
<path d="M94.7532 5.47891C94.7532 7.01744 94.7532 8.55596 94.7532 10.1109C94.7532 10.2091 94.7532 10.2909 94.7532 10.3891C94.7532 10.52 94.8233 10.5691 94.9633 10.5691C95.0684 10.5691 95.1559 10.5691 95.261 10.5691C96.5741 10.5691 97.8872 10.5691 99.2003 10.5691C99.5504 10.5691 99.5504 10.5691 99.5504 10.8965C99.5504 14.2027 99.5504 17.5089 99.5504 20.815C99.5504 21.126 99.5504 21.1424 99.2003 21.1424C97.9047 21.1424 96.6266 21.1424 95.331 21.1424C95.2259 21.1424 95.1384 21.1424 95.0334 21.1424C94.8233 21.126 94.7182 21.1915 94.7357 21.4043C94.7707 21.8953 94.7882 22.4027 94.8408 22.8937C94.8758 23.2701 94.9633 23.6466 95.0509 24.0067C95.4185 25.4961 96.434 26.3145 98.0097 26.5763C98.4824 26.6582 98.9551 26.6745 99.4279 26.7236C99.743 26.74 99.743 26.74 99.743 27.0346C99.743 28.1476 99.743 29.2606 99.743 30.3735C99.743 32.4849 99.743 34.6127 99.743 36.724C99.743 36.8059 99.743 36.8877 99.743 36.9532C99.7255 37.2151 99.7255 37.2314 99.4279 37.2314C96.8367 37.346 94.3681 36.9204 92.022 35.8402C89.5183 34.6945 87.5049 33.0414 86.0868 30.7991C85.2114 29.3915 84.6861 27.8693 84.371 26.2817C84.0909 24.8741 84.0208 23.4502 84.0208 22.0262C84.0208 14.9556 84.0208 7.8849 84.0208 0.814241C84.0208 0.306855 83.9683 0.372324 84.5286 0.355957C85.7541 0.355957 86.9972 0.355957 88.2228 0.355957C90.2187 0.355957 92.2321 0.355957 94.228 0.355957C94.333 0.355957 94.4206 0.355957 94.5256 0.355957C94.6657 0.355957 94.7357 0.405059 94.7357 0.535997C94.7357 0.634201 94.7357 0.716037 94.7357 0.814241C94.7532 2.36913 94.7532 3.92402 94.7532 5.47891Z" fill="#02AAEB"/>
<path d="M48.2518 21.1424C47.7266 18.5236 46.4485 16.2813 44.5051 14.35C42.6843 12.5496 40.5483 11.2074 37.9922 10.5036C35.6636 9.86532 33.2825 9.78348 30.8839 10.1763C26.1393 10.9456 22.6202 13.3352 20.2216 17.1979C19.1711 18.9001 18.6634 20.7659 18.5233 22.7136C18.3657 24.9559 18.6459 27.1328 19.6263 29.1951C22.3576 34.9563 29.0456 39.0973 37.3094 37.2805C42.4742 36.1512 48.6195 31.2246 48.497 23.7939C48.497 22.8937 48.4269 22.0098 48.2518 21.1424ZM36.7141 26.3144C34.9808 28.3767 31.8644 28.3276 30.2011 26.2162C29.6234 25.4961 29.3607 24.6941 29.3783 23.8921C29.3783 21.9935 30.5688 20.4386 32.3371 19.9639C34.7007 19.3256 37.1518 20.7659 37.5545 23.0246C37.7646 24.2358 37.5195 25.3324 36.7141 26.3144Z" fill="#628713"/>
</svg>
