<?xml version="1.0" encoding="utf-8"?>
<!-- Generator: Adobe Illustrator 24.0.1, SVG Export Plug-In . SVG Version: 6.00 Build 0)  -->
<svg version="1.1" id="Layer_1" xmlns="http://www.w3.org/2000/svg" xmlns:xlink="http://www.w3.org/1999/xlink" x="0px" y="0px"
	 viewBox="0 0 978.1 310.1" style="enable-background:new 0 0 978.1 310.1;" xml:space="preserve">
<style type="text/css">
	.st0{fill:#02AAEB;}
	.st1{fill:#628713;}
	.st2{fill:#ABE3F8;}
	.st3{fill:#D2EFFB;}
	.st4{fill:#C1EAFA;}
	.st5{fill:#BBE8FA;}
	.st6{fill:#6DCEF3;}
	.st7{fill:#2FB9EE;}
	.st8{fill:#6FCEF3;}
</style>
<g>
	<path class="st0" d="M636,308.1c-8-0.9-15.7-2.6-23.3-5.3c-2.3-0.9-2.4-0.9-2.4-3.4c0-16.1,0-32.3,0-48.4c0-0.2,0-0.5,0-0.7
		c0.1-1.3,0.2-1.4,1.5-0.9c3.4,1.4,6.9,2.6,10.5,3.4c8.9,2.1,17.6,1.8,26.1-1.9c7.3-3.1,12.6-8.6,16.5-15.4
		c2.5-4.5,4.3-9.2,5.7-14.4c-1.1,0.1-1.7,0.7-2.4,1.1c-5.9,3.2-12.1,5.8-18.8,6.9c-21,3.6-38.1-2.8-50.8-20.2
		c-5.9-8-9.1-17.1-10.5-26.9c-0.7-4.7-0.9-9.4-0.9-14.1c0-32.3,0-64.7,0-97c0-3.2-0.4-3,2.9-3c18.5,0,36.9,0,55.4,0
		c0.6,0,1.1,0,1.7,0c0.9,0,1.4,0.3,1.3,1.3c0,0.6,0,1.3,0,1.9c0,28.1,0,56.2,0,84.3c0,2.5,0.2,4.9,1,7.3c1.5,4.3,4.6,6.6,9.1,7
		c1,0.1,2.1,0.1,3.1,0c4.3-0.2,7.2-2.5,8.8-6.3c1-2.3,1.4-4.8,1.5-7.2c0.1-1.3,0.1-2.6,0.1-3.8c0-27,0-54,0-81c0-0.6,0-1.3,0-1.9
		c-0.1-1.1,0.3-1.7,1.5-1.6c0.4,0,0.8,0,1.2,0c18.6,0,37.3,0,55.9,0c2.7,0,2.7-0.3,2.7,2.5c0,47.6,0,95.2,0,142.8
		c0,13.5-2,26.7-6.7,39.4c-9.4,25-34.9,49-65.6,54.4c-2.5,0.4-5.1,0.7-7.6,1.1c-0.7,0.4-1.5,0.1-2.3,0.2c-0.6,0-1.2,0-1.9,0
		c-0.7,0.1-1.5-0.2-2.1,0.2c-2.4,0-4.8,0-7.2,0c-0.6-0.5-1.4-0.1-2.1-0.2C637.2,308.2,636.5,308.4,636,308.1z"/>
	<path class="st1" d="M91,1.9C91,2.7,91,3.5,91,4.3c0,49.5,0,99,0,148.5c0,14.1-2.6,27.6-9.1,40.2c-7.1,13.6-17.1,24.5-31.1,31.1
		c-14.5,6.7-29.5,7.8-44.8,3.2c-1.2-0.4-2.3-1.1-3.7-0.7c0-21.6,0-43.1,0-64.7c1-0.4,1.9,0,2.8,0.2c1.2,0.4,2.4,0.8,3.7,1
		c6.3,1.3,11.5-1.7,13.5-7.8c1.5-4.4,1.8-8.9,1.8-13.5c0-45.2,0-90.4,0-135.5c0-1.5-0.4-3.2,0.8-4.6c2.4-0.2,4.8-0.1,7.2-0.1
		c18.8,0,37.6,0,56.4,0C89.2,1.6,90.2,1.3,91,1.9z"/>
	<path class="st2" d="M973.8,227.6c-0.2,0-0.4,0-0.6-0.1c-0.8-0.9-0.7-2.1-0.7-3.2c0-30.1,0-60.2,0-90.2c0-1-0.1-2.1,0.4-3
		c0.2-0.3,0.5-0.4,0.8-0.3C973.8,163,973.8,195.3,973.8,227.6z"/>
	<path class="st3" d="M973.8,130.8l-0.2,0l-0.2,0c-1-1.1-1-2.2,0-3.4c0.1,0,0.3,0,0.4,0C973.8,128.5,973.8,129.6,973.8,130.8z"/>
	<path class="st4" d="M650.9,308.1c0.8,0,1.6,0,2.4,0c0,0.2,0,0.3,0,0.5c-0.8,0-1.6,0-2.4,0c-0.2-0.1-0.2-0.2-0.1-0.3
		C650.8,308.2,650.9,308.1,650.9,308.1z"/>
	<path class="st5" d="M636,308.1c0.6,0,1.3,0,1.9,0c0.2,0.1,0.2,0.2,0.2,0.3c-0.1,0.1-0.1,0.2-0.2,0.2c-0.6,0-1.3,0-1.9,0
		C636,308.4,636,308.3,636,308.1z"/>
	<path class="st6" d="M637.9,308.6c0-0.1,0-0.3,0-0.4c0.7,0,1.4-0.3,2,0.4C639.2,308.6,638.6,308.6,637.9,308.6z"/>
	<path class="st7" d="M647,308.6c0.5-0.7,1.3-0.4,2-0.4c0.1,0.1,0.2,0.2,0.1,0.3c-0.1,0.1-0.1,0.1-0.2,0.1
		C648.3,308.6,647.7,308.6,647,308.6z"/>
	<path class="st8" d="M649,308.6c0-0.1,0-0.3,0-0.4c0.6,0,1.3,0,1.9,0c0,0.1,0,0.3,0,0.4C650.2,308.6,649.6,308.6,649,308.6z"/>
	<path class="st0" d="M973.4,127.4c0,1.1,0,2.2,0,3.4c0,1-0.1,1.9-0.1,2.9c0,30.3,0,60.5,0,90.8c0,1,0,2.1-0.1,3.1
		c-9.6,0-19.2,0-28.8,0c-9.7,0-19.3,0-29,0c-0.6,0-1.1,0-1.7,0c-0.9,0-1.4-0.3-1.3-1.2c0-0.6,0-1.3,0-1.9c0-28.3,0-56.5,0-84.8
		c0-3.7-0.1-7.3-1-10.9c-1.4-5.4-5.4-7.8-10.9-6.6c-2.9,0.6-4.7,2.5-6,5.1c-1.2,2.4-1.7,5-1.9,7.6c-0.1,1.8-0.2,3.7-0.2,5.5
		c0,28.1,0,56.2,0,84.3c0,3.5,0.1,3-3,3c-18.5,0-37.1,0-55.6,0c-2.8,0-2.6,0.2-2.6-2.6c0-28.1,0-56.2,0-84.3c0-3.8-0.1-7.5-0.9-11.2
		c-0.1-0.6-0.3-1.2-0.5-1.8c-1.1-3.7-3.7-5.5-7.4-5.8c-3.6-0.3-6.4,0.9-8.4,4c-1.5,2.3-2.1,5-2.5,7.7c-0.4,2.8-0.5,5.6-0.5,8.4
		c0,27.6,0,55.1,0,82.7c0,3.5,0.4,3-3.1,3c-18.5,0-36.9,0-55.4,0c-2.7,0-2.6,0.3-2.6-2.5c0-32.4,0-64.8,0-97.3
		c0-13.3,2.9-25.7,10.3-36.8c8.4-12.8,19.6-22.4,34.5-26.7c21.3-6.2,40.8-2,58.1,11.8c2.8,2.2,5.5,4.6,8,7.3c0.9,1,1.4,0.8,2.3,0
		c5.5-5.2,11.4-9.7,18-13.5c7-4,14.4-7.1,22.5-7.8c21.2-1.9,39.6,4,54.1,20.2c7.2,8.1,11.3,17.7,13.6,28.1
		C972.5,115.9,973.3,121.6,973.4,127.4z"/>
	<path class="st1" d="M366.9,127.6c0-1.3,0-2,0-2.8c0-20.5,0-41,0-61.6c0-0.2,0-0.5,0-0.7c0-2.2,0-2,2.1-2.2
		c4.5-0.4,8.9-0.8,13.4-0.8c25.1-0.2,46,9.3,62.8,27.8c11.2,12.3,18.4,26.6,20.8,43.1c7.9,53.2-28.6,88.3-64,96.1
		c-28.6,6.3-54.6,0.5-77.2-18.4c-13.1-10.9-20.9-25.2-25.1-41.6c-2.4-9.4-3.3-19-3.3-28.7c0-44.2,0-88.3,0-132.5
		c0-2.6-0.4-2.6,2.6-2.6c18.7,0,37.4,0,56.1,0c2.9,0,2.6-0.1,2.6,2.6c0,43.9,0,87.8,0,131.8c0,5.7,0.6,11.3,2.4,16.7
		c1.1,3.2,2.7,6.1,5,8.6c4.2,4.4,9.5,6,15.4,6.1c8.2,0.1,14.9-3.1,19.9-9.7c9.2-12,3.9-32.3-12.9-36.4c-4.7-1.1-9.2-0.6-13.6,1.4
		C371.6,124.8,369.5,126.2,366.9,127.6z"/>
	<path class="st0" d="M543.5,35c0,9.4,0,18.8,0,28.3c0,0.6,0,1.1,0,1.7c0,0.8,0.4,1.1,1.2,1.1c0.6,0,1.1,0,1.7,0c7.5,0,15,0,22.5,0
		c2,0,2,0,2,2c0,20.2,0,40.4,0,60.6c0,1.9,0,2-2,2c-7.4,0-14.7,0-22.1,0c-0.6,0-1.1,0-1.7,0c-1.2-0.1-1.8,0.3-1.7,1.6
		c0.2,3,0.3,6.1,0.6,9.1c0.2,2.3,0.7,4.6,1.2,6.8c2.1,9.1,7.9,14.1,16.9,15.7c2.7,0.5,5.4,0.6,8.1,0.9c1.8,0.1,1.8,0.1,1.8,1.9
		c0,6.8,0,13.6,0,20.4c0,12.9,0,25.9,0,38.8c0,0.5,0,1,0,1.4c-0.1,1.6-0.1,1.7-1.8,1.7c-14.8,0.7-28.9-1.9-42.3-8.5
		c-14.3-7-25.8-17.1-33.9-30.8c-5-8.6-8-17.9-9.8-27.6c-1.6-8.6-2-17.3-2-26c0-43.2,0-86.4,0-129.6c0-3.1-0.3-2.7,2.9-2.8
		c7,0,14.1,0,21.1,0c11.4,0,22.9,0,34.3,0c0.6,0,1.1,0,1.7,0c0.8,0,1.2,0.3,1.2,1.1c0,0.6,0,1.1,0,1.7C543.5,16,543.5,25.5,543.5,35
		z"/>
	<path class="st1" d="M277.9,130.7c-3-16-10.3-29.7-21.4-41.5c-10.4-11-22.6-19.2-37.2-23.5c-13.3-3.9-26.9-4.4-40.6-2
		c-27.1,4.7-47.2,19.3-60.9,42.9c-6,10.4-8.9,21.8-9.7,33.7c-0.9,13.7,0.7,27,6.3,39.6c15.6,35.2,53.8,60.5,101,49.4
		c29.5-6.9,64.6-37,63.9-82.4C279.3,141.4,278.9,136,277.9,130.7z M212,162.3c-9.9,12.6-27.7,12.3-37.2-0.6
		c-3.3-4.4-4.8-9.3-4.7-14.2c0-11.6,6.8-21.1,16.9-24c13.5-3.9,27.5,4.9,29.8,18.7C218,149.6,216.6,156.3,212,162.3z"/>
</g>
</svg>
