<svg width="19" height="18" viewBox="0 0 19 18" fill="none" xmlns="http://www.w3.org/2000/svg">
<path d="M16.4516 13.6047H14.9802C14.8797 13.6047 14.7856 13.6486 14.7228 13.7261C14.5763 13.904 14.4193 14.0756 14.2539 14.2388C13.5777 14.9158 12.7766 15.4553 11.8951 15.8274C10.9818 16.2132 10.0002 16.4111 9.00882 16.4093C8.00627 16.4093 7.0351 16.2126 6.12255 15.8274C5.24103 15.4553 4.43998 14.9158 3.76371 14.2388C3.08624 13.5642 2.54603 12.7645 2.17302 11.8842C1.78581 10.9716 1.59116 10.0026 1.59116 9.00002C1.59116 7.99746 1.7879 7.02839 2.17302 6.11584C2.54558 5.23467 3.08139 4.44142 3.76371 3.76119C4.44604 3.08096 5.23929 2.54514 6.12255 2.17259C7.0351 1.78747 8.00627 1.59073 9.00882 1.59073C10.0114 1.59073 10.9825 1.78538 11.8951 2.17259C12.7783 2.54514 13.5716 3.08096 14.2539 3.76119C14.4193 3.92654 14.5742 4.09816 14.7228 4.27398C14.7856 4.35142 14.8818 4.39537 14.9802 4.39537H16.4516C16.5835 4.39537 16.6651 4.24886 16.5918 4.13793C14.9865 1.64305 12.1777 -0.00834039 8.9858 3.16855e-05C3.97092 0.0125898 -0.0497669 4.08351 0.000465601 9.09211C0.0506981 14.0212 4.06511 18 9.00882 18C12.1923 18 14.9886 16.3507 16.5918 13.8621C16.663 13.7512 16.5835 13.6047 16.4516 13.6047ZM18.3123 8.86816L15.3423 6.52397C15.2314 6.43607 15.0702 6.5156 15.0702 6.65583V8.24653H8.49813C8.40603 8.24653 8.33068 8.32188 8.33068 8.41397V9.58606C8.33068 9.67815 8.40603 9.7535 8.49813 9.7535H15.0702V11.3442C15.0702 11.4844 15.2335 11.564 15.3423 11.4761L18.3123 9.13188C18.3323 9.11621 18.3485 9.0962 18.3596 9.07335C18.3708 9.05051 18.3765 9.02543 18.3765 9.00002C18.3765 8.9746 18.3708 8.94952 18.3596 8.92668C18.3485 8.90383 18.3323 8.88382 18.3123 8.86816Z" fill="#8599AD"/>
</svg>
