<svg width="16" height="16" viewBox="0 0 16 16" fill="none" xmlns="http://www.w3.org/2000/svg">
<path d="M7.33264 8.08925e-06C5.74134 8.08925e-06 4.21522 0.632149 3.09 1.75737C1.96479 2.88258 1.33265 4.40871 1.33265 6.00001V9.20134L0.0473124 12.42C0.00705491 12.5211 -0.00785025 12.6305 0.00389763 12.7387C0.0156455 12.8468 0.0536893 12.9505 0.114709 13.0405C0.175728 13.1306 0.257869 13.2044 0.35396 13.2554C0.450052 13.3065 0.557175 13.3332 0.665979 13.3333H4.66598C4.66598 14.8107 5.85531 16 7.33264 16C8.80997 16 9.99931 14.8107 9.99931 13.3333H13.9993C14.1081 13.3332 14.2152 13.3065 14.3113 13.2554C14.4074 13.2044 14.4896 13.1306 14.5506 13.0405C14.6116 12.9505 14.6496 12.8468 14.6614 12.7387C14.6731 12.6305 14.6582 12.5211 14.618 12.42L13.3326 9.2V6.66667C12.8738 6.66736 12.4198 6.57292 11.9993 6.38934V9.33067C11.9995 9.41519 12.0158 9.4989 12.0473 9.57734L13.0153 12H1.64998L2.61798 9.57734C2.64947 9.4989 2.66576 9.41519 2.66598 9.33067V6.00001C2.66575 5.12969 2.9089 4.27666 3.36796 3.53726C3.82702 2.79787 4.4837 2.20157 5.26381 1.81575C6.04393 1.42992 6.91639 1.26993 7.78265 1.35385C8.6489 1.43778 9.47443 1.76227 10.166 2.29067C10.3086 1.85734 10.538 1.46134 10.834 1.12667C9.81442 0.392193 8.58921 -0.00205929 7.33264 8.08925e-06ZM8.66598 13.3333C8.66598 14.0747 8.07398 14.6667 7.33264 14.6667C6.59131 14.6667 5.99931 14.0747 5.99931 13.3333H8.66598ZM11.8233 2.02134C11.6329 2.23964 11.4923 2.49684 11.4115 2.77502C11.3307 3.05319 11.3115 3.34565 11.3553 3.63201C11.426 4.10562 11.6646 4.53804 12.0276 4.85037C12.3906 5.16269 12.8538 5.33411 13.3326 5.33334C13.6675 5.33337 13.9969 5.24934 14.2909 5.08896C14.5848 4.92857 14.8337 4.69697 15.0149 4.41537C15.196 4.13378 15.3035 3.81122 15.3276 3.47726C15.3517 3.14331 15.2916 2.80865 15.1528 2.50397C15.0139 2.19929 14.8008 1.93435 14.5329 1.73343C14.2651 1.53252 13.9511 1.40206 13.6197 1.35403C13.2884 1.30599 12.9503 1.34192 12.6364 1.45851C12.3225 1.5751 12.043 1.76863 11.8233 2.02134Z" fill="#8599AD"/>
</svg>
