<svg width="20" height="18" viewBox="0 0 20 18" fill="none" xmlns="http://www.w3.org/2000/svg">
<path d="M16 4.97852C16.7956 4.97852 17.5587 5.29459 18.1213 5.85719C18.6839 6.4198 19 7.18287 19 7.97852C19 8.77417 18.6839 9.53723 18.1213 10.0998C17.5587 10.6624 16.7956 10.9785 16 10.9785M8 4.97852V15.9785C8 16.2437 7.89464 16.4981 7.70711 16.6856C7.51957 16.8732 7.26522 16.9785 7 16.9785H6C5.73478 16.9785 5.48043 16.8732 5.29289 16.6856C5.10536 16.4981 5 16.2437 5 15.9785V10.9785" stroke="#8599AD" stroke-width="1.5" stroke-linecap="round" stroke-linejoin="round"/>
<path d="M10 4.97846L14.524 1.20846C14.6555 1.09897 14.8154 1.02922 14.9851 1.00737C15.1548 0.985522 15.3271 1.01249 15.482 1.08511C15.6369 1.15774 15.7679 1.27301 15.8597 1.41741C15.9514 1.56182 16.0001 1.72938 16 1.90046V14.0565C16.0001 14.2275 15.9514 14.3951 15.8597 14.5395C15.7679 14.6839 15.6369 14.7992 15.482 14.8718C15.3271 14.9444 15.1548 14.9714 14.9851 14.9496C14.8154 14.9277 14.6555 14.858 14.524 14.7485L10 10.9785H2C1.73478 10.9785 1.48043 10.8731 1.29289 10.6856C1.10536 10.498 1 10.2437 1 9.97846V5.97846C1 5.71325 1.10536 5.45889 1.29289 5.27136C1.48043 5.08382 1.73478 4.97846 2 4.97846H10Z" stroke="#8599AD" stroke-width="1.5" stroke-linecap="round" stroke-linejoin="round"/>
</svg>
