<svg width="3" height="11" viewBox="0 0 3 11" fill="none" xmlns="http://www.w3.org/2000/svg">
<path d="M1.25 2.5C0.918479 2.5 0.600537 2.3683 0.366117 2.13388C0.131696 1.89946 0 1.58152 0 1.25C0 0.918479 0.131696 0.600537 0.366117 0.366117C0.600537 0.131696 0.918479 0 1.25 0C1.58152 0 1.89946 0.131696 2.13388 0.366117C2.3683 0.600537 2.5 0.918479 2.5 1.25C2.5 1.58152 2.3683 1.89946 2.13388 2.13388C1.89946 2.3683 1.58152 2.5 1.25 2.5ZM1.25 6.5C0.918479 6.5 0.600537 6.3683 0.366117 6.13388C0.131696 5.89946 0 5.58152 0 5.25C0 4.91848 0.131696 4.60054 0.366117 4.36612C0.600537 4.1317 0.918479 4 1.25 4C1.58152 4 1.89946 4.1317 2.13388 4.36612C2.3683 4.60054 2.5 4.91848 2.5 5.25C2.5 5.58152 2.3683 5.89946 2.13388 6.13388C1.89946 6.3683 1.58152 6.5 1.25 6.5ZM0 9.25C0 9.58152 0.131696 9.89946 0.366117 10.1339C0.600537 10.3683 0.918479 10.5 1.25 10.5C1.58152 10.5 1.89946 10.3683 2.13388 10.1339C2.3683 9.89946 2.5 9.58152 2.5 9.25C2.5 8.91848 2.3683 8.60054 2.13388 8.36612C1.89946 8.1317 1.58152 8 1.25 8C0.918479 8 0.600537 8.1317 0.366117 8.36612C0.131696 8.60054 0 8.91848 0 9.25Z" fill="black"/>
</svg>
