<svg width="16" height="20" viewBox="0 0 16 20" fill="none" xmlns="http://www.w3.org/2000/svg">
<path d="M6.39623 13.2274C5.87023 15.9814 5.22923 18.6214 3.32823 20.0004C2.74223 15.8384 4.18923 12.7134 4.86223 9.39543C3.71523 7.46543 5.00023 3.58343 7.41723 4.54043C10.3922 5.71643 4.84123 11.7124 8.56723 12.4624C12.4582 13.2434 14.0462 5.71243 11.6332 3.26343C8.14823 -0.274572 1.48723 3.18043 2.30723 8.24543C2.50623 9.48343 3.78523 9.85843 2.81823 11.5674C0.587231 11.0734 -0.078769 9.31343 0.00723097 6.96743C0.145231 3.12743 3.45623 0.440428 6.77823 0.0674279C10.9792 -0.403572 14.9222 1.61043 15.4672 5.56143C16.0802 10.0224 13.5712 14.8544 9.07823 14.5064C7.86023 14.4114 7.35023 13.8074 6.39623 13.2274Z" fill="white"/>
</svg>
