<svg width="19" height="15" viewBox="0 0 19 15" fill="none" xmlns="http://www.w3.org/2000/svg">
<path d="M16.25 0H0V12.5H16.25V0ZM15 11.25H1.25V1.25H15V11.25Z" fill="#A0A0A0"/>
<path d="M17.5 3.125V13.75H3.125V15H18.75V3.125H17.5Z" fill="#A0A0A0"/>
<path d="M8.125 9.31484C9.67578 9.31484 10.9375 7.9423 10.9375 6.25523C10.9375 4.56816 9.67578 3.19562 8.125 3.19562C6.57422 3.19562 5.3125 4.56813 5.3125 6.25523C5.3125 7.94234 6.57422 9.31484 8.125 9.31484ZM8.125 4.44562C8.98656 4.44562 9.6875 5.25742 9.6875 6.25523C9.6875 7.25305 8.98656 8.06484 8.125 8.06484C7.26344 8.06484 6.5625 7.25305 6.5625 6.25523C6.5625 5.25742 7.26344 4.44562 8.125 4.44562ZM2.5 2.8125H3.75V9.6875H2.5V2.8125ZM12.5 2.8125H13.75V9.6875H12.5V2.8125Z" fill="#A0A0A0"/>
</svg>
