<svg width="16" height="16" viewBox="0 0 16 16" fill="none" xmlns="http://www.w3.org/2000/svg">
<path d="M3.33333 0V4.66667H2C0.903333 4.66667 0 5.57 0 6.66667V13.3333H3.33333V16H12.6667V13.3333H16V6.66667C16 5.57 15.0967 4.66667 14 4.66667H12.6667V0H3.33333ZM4.66667 1.33333H11.3333V4.66667H4.66667V1.33333ZM2 6H14C14.3773 6 14.6667 6.28933 14.6667 6.66667V12H12.6667V9.33333H3.33333V12H1.33333V6.66667C1.33333 6.28933 1.62267 6 2 6ZM2.66667 6.66667C2.3 6.66667 2 6.96667 2 7.33333C2 7.7 2.3 8 2.66667 8C3.03333 8 3.33333 7.7 3.33333 7.33333C3.33333 6.96667 3.03333 6.66667 2.66667 6.66667ZM4.66667 10.6667H11.3333V14.6667H4.66667V10.6667Z" fill="white"/>
</svg>
