<svg width="19" height="15" viewBox="0 0 19 15" fill="none" xmlns="http://www.w3.org/2000/svg">
<path d="M15.7684 11.322C17.7762 9.53025 18.8857 7.50003 18.8857 7.50003C18.8857 7.50003 15.3447 1.00806 9.44286 1.00806C8.30923 1.01196 7.18844 1.24817 6.14966 1.70211L7.05853 2.61216C7.82274 2.33378 8.62953 2.1904 9.44286 2.18842C11.9452 2.18842 14.0215 3.56707 15.543 5.08856C16.2752 5.82474 16.9316 6.63262 17.5023 7.50003C17.4339 7.60272 17.3583 7.71604 17.2722 7.83997C16.8768 8.40655 16.2925 9.16198 15.543 9.9115C15.3482 10.1063 15.1452 10.2987 14.9327 10.4852L15.7684 11.322Z" fill="black"/>
<path d="M13.3345 8.88805C13.5979 8.15132 13.6466 7.35494 13.4751 6.59157C13.3036 5.8282 12.9188 5.12923 12.3656 4.57598C11.8124 4.02274 11.1134 3.63798 10.35 3.46646C9.58665 3.29494 8.79027 3.34372 8.05354 3.60712L9.02497 4.57856C9.47859 4.51363 9.94111 4.55524 10.3759 4.70009C10.8106 4.84494 11.2056 5.08906 11.5297 5.41309C11.8537 5.73711 12.0978 6.13216 12.2427 6.56691C12.3875 7.00166 12.4291 7.46417 12.3642 7.91779L13.3345 8.88805ZM9.86066 10.4213L10.8309 11.3916C10.0942 11.655 9.29781 11.7038 8.53444 11.5323C7.77107 11.3607 7.0721 10.976 6.51886 10.4227C5.96561 9.86949 5.58085 9.17052 5.40933 8.40715C5.23781 7.64378 5.28659 6.84739 5.54999 6.11066L6.52143 7.0821C6.4565 7.53572 6.49811 7.99824 6.64296 8.43299C6.78781 8.86774 7.03193 9.26278 7.35596 9.58681C7.67999 9.91084 8.07503 10.1549 8.50978 10.2998C8.94453 10.4447 9.40704 10.4863 9.86066 10.4213Z" fill="black"/>
<path d="M3.9542 4.51369C3.74174 4.70255 3.53754 4.89377 3.34278 5.08853C2.61054 5.82471 1.95411 6.63259 1.38338 7.5L1.61355 7.83994C2.00897 8.40652 2.59325 9.16195 3.34278 9.91147C4.86426 11.433 6.94169 12.8116 9.44287 12.8116C10.288 12.8116 11.0836 12.6546 11.8272 12.3867L12.7361 13.2979C11.6973 13.7518 10.5765 13.988 9.44287 13.992C3.54108 13.992 0 7.5 0 7.5C0 7.5 1.10836 5.4686 3.11733 3.678L3.95302 4.51487L3.9542 4.51369ZM16.1072 15L1.94287 0.835694L2.77856 0L16.9429 14.1643L16.1072 15Z" fill="black"/>
</svg>
