<svg width="23" height="33" viewBox="0 0 23 33" fill="none" xmlns="http://www.w3.org/2000/svg">
<path d="M10.045 26.19C10.7917 26.19 11.6317 26.3183 12.565 26.575C13.4983 26.8317 14.4433 27.1583 15.4 27.555C16.3567 27.975 16.9633 28.22 17.22 28.29C18.3167 28.64 20.0083 28.815 22.295 28.815C22.2017 29.7017 22.05 30.4717 21.84 31.125C21.6533 31.7783 21.3967 32.315 21.07 32.735C19.32 32.6417 17.7683 32.3383 16.415 31.825C16.0417 31.685 15.365 31.3933 14.385 30.95C13.405 30.53 12.5417 30.2033 11.795 29.97C11.0483 29.76 10.3367 29.655 9.66 29.655C9.00667 29.655 8.07333 29.795 6.86 30.075C5.67 30.3783 5.06333 30.53 5.04 30.53C4.2 29.8067 3.78 29.0017 3.78 28.115C5.20333 27.4617 6.41667 26.9717 7.42 26.645C8.44667 26.3417 9.32167 26.19 10.045 26.19ZM11.55 21.71C15.4233 21.71 17.36 18.735 17.36 12.785C17.36 6.835 15.4233 3.86 11.55 3.86C9.87 3.86 8.4 4.11667 7.14 4.63C6.06667 6.87 5.53 9.47167 5.53 12.435C5.53 15.375 5.97333 17.6617 6.86 19.295C7.74667 20.905 9.31 21.71 11.55 21.71ZM11.55 0.0799996C15.4467 0.0799996 18.1883 1.10667 19.775 3.16C21.3617 5.19 22.155 8.305 22.155 12.505C22.155 15.1417 21.8167 17.3933 21.14 19.26C20.4633 21.1267 19.32 22.62 17.71 23.74C16.1 24.86 14.0467 25.42 11.55 25.42C7.74667 25.42 4.98167 24.3583 3.255 22.235C1.55167 20.1117 0.7 17.02 0.7 12.96C0.7 4.37333 4.31667 0.0799996 11.55 0.0799996Z" fill="white"/>
</svg>
