<svg width="15" height="18" viewBox="0 0 15 18" fill="none" xmlns="http://www.w3.org/2000/svg">
<path fill-rule="evenodd" clip-rule="evenodd" d="M9.32185 0.666626C9.76384 0.66672 10.1877 0.842377 10.5002 1.15496L14.1785 4.83329C14.4911 5.14578 14.6668 5.56963 14.6669 6.01163V15.6666C14.6669 16.1087 14.4913 16.5326 14.1787 16.8451C13.8661 17.1577 13.4422 17.3333 13.0002 17.3333H8.83352C8.6125 17.3333 8.40054 17.2455 8.24426 17.0892C8.08798 16.9329 8.00018 16.721 8.00018 16.5C8.00018 16.2789 8.08798 16.067 8.24426 15.9107C8.40054 15.7544 8.6125 15.6666 8.83352 15.6666H13.0002V7.33329H9.25018C8.91866 7.33329 8.60072 7.2016 8.3663 6.96718C8.13188 6.73276 8.00018 6.41481 8.00018 6.08329V2.33329H3.00018V5.66663C3.00018 5.88764 2.91239 6.0996 2.75611 6.25588C2.59983 6.41216 2.38787 6.49996 2.16685 6.49996C1.94584 6.49996 1.73388 6.41216 1.5776 6.25588C1.42132 6.0996 1.33352 5.88764 1.33352 5.66663V2.33329C1.33352 1.89127 1.50911 1.46734 1.82167 1.15478C2.13423 0.842221 2.55816 0.666626 3.00018 0.666626H9.32185ZM3.83352 7.33329C4.47505 7.33326 5.10296 7.51835 5.6419 7.86635C6.18084 8.21436 6.6079 8.71049 6.87185 9.29521C7.13579 9.87993 7.22539 10.5284 7.1299 11.1628C7.03441 11.7972 6.75789 12.3905 6.33352 12.8716V16.365C6.33354 16.5212 6.29361 16.6749 6.21753 16.8114C6.14145 16.9479 6.03173 17.0627 5.8988 17.1448C5.76588 17.227 5.61415 17.2738 5.45804 17.2808C5.30193 17.2879 5.14662 17.2549 5.00685 17.185L3.83352 16.5983L2.66018 17.185C2.52042 17.2549 2.3651 17.2879 2.20899 17.2808C2.05288 17.2738 1.90116 17.227 1.76823 17.1448C1.63531 17.0627 1.52559 16.9479 1.44951 16.8114C1.37342 16.6749 1.33349 16.5212 1.33352 16.365V12.8716C0.909146 12.3905 0.632622 11.7972 0.537133 11.1628C0.441645 10.5284 0.531248 9.87993 0.79519 9.29521C1.05913 8.71049 1.4862 8.21436 2.02514 7.86635C2.56407 7.51835 3.19199 7.33326 3.83352 7.33329ZM4.66685 13.895C4.12021 14.0357 3.54682 14.0357 3.00018 13.895V15.1516L3.46102 14.9216C3.57668 14.8638 3.70421 14.8337 3.83352 14.8337C3.96282 14.8337 4.09035 14.8638 4.20602 14.9216L4.66685 15.1516V13.895ZM3.83352 8.99996C3.39149 8.99996 2.96757 9.17555 2.65501 9.48811C2.34245 9.80068 2.16685 10.2246 2.16685 10.6666C2.16685 11.1087 2.34245 11.5326 2.65501 11.8451C2.96757 12.1577 3.39149 12.3333 3.83352 12.3333C4.27555 12.3333 4.69947 12.1577 5.01203 11.8451C5.32459 11.5326 5.50018 11.1087 5.50018 10.6666C5.50018 10.2246 5.32459 9.80068 5.01203 9.48811C4.69947 9.17555 4.27555 8.99996 3.83352 8.99996ZM9.66685 2.67829V5.66663H12.6552L9.66685 2.67829Z" fill="black"/>
</svg>
