<svg width="283" height="219" viewBox="0 0 283 219" fill="none" xmlns="http://www.w3.org/2000/svg">
<path d="M25.9847 200.939C29.8001 204.437 35.5231 207.961 37.9078 209.286H53.8052C55.7924 204.781 59.7667 195.137 59.7667 192.593C59.7667 189.414 59.3693 185.439 58.5744 183.055C57.7796 180.67 54.6001 176.298 51.818 171.927C49.036 167.555 50.2283 169.145 50.2283 165.568C50.2283 161.991 50.2283 161.196 48.2411 153.645C46.2539 146.093 43.8693 147.286 39.1001 143.311C34.3309 139.337 31.9462 138.542 29.1642 135.362C26.3821 132.183 27.5744 128.209 26.7796 121.452C25.9847 114.696 25.9847 115.093 20.4206 112.709C14.8565 110.324 6.51034 107.939 4.92059 111.516C3.33084 115.093 2.13854 115.888 0.548797 120.657C-1.04095 125.427 0.946233 127.414 4.92059 132.58C8.89495 137.747 11.677 143.311 11.677 144.504C11.677 145.696 10.4847 149.273 9.29238 153.645C8.10007 158.016 8.89495 157.221 9.29238 161.196C9.68982 165.17 11.2796 163.978 15.6514 167.555C20.0231 171.132 20.4206 174.709 23.2026 177.491C25.9847 180.273 22.8052 179.875 22.0103 183.055C21.2155 186.234 20.4206 187.427 20.4206 191.401C20.4206 195.375 21.2155 196.568 25.9847 200.939Z" fill="#CDE7FC"/>
<path fill-rule="evenodd" clip-rule="evenodd" d="M16.6922 131.154L38.9486 187.59L39.8788 187.223L27.7282 156.412L28.6152 156.59L30.9998 144.667L30.0192 144.471L27.6636 156.249L17.6224 130.787L16.6922 131.154ZM15.8973 158.974L30.205 166.923L29.7193 167.797L15.4116 159.849L15.8973 158.974Z" fill="#6C97ED"/>
<path d="M54.9783 112.574L58.8205 109.692L61.881 112.635L88.6282 112.872V207.5H72.7308V131.551H68.7564L64.5 207.5H38L43.718 112.474L54.9783 112.574Z" fill="white"/>
<path d="M47.6923 118.038L58.8205 109.692L69.1539 119.628L67.5641 121.218L63.9872 118.833L68.7564 124L66.3718 125.59L62.3975 120.423L66.3718 126.385L64.7821 127.577L60.0129 122.41L63.9872 127.974L62 129.962L57.6282 124.397L61.2052 130.756L59.218 131.551L48.0898 118.038H47.6923ZM88.6282 112.872L43.718 112.474L38 207.5H64.5L68.7564 131.551H72.7308V207.5H88.6282V112.872Z" stroke="#BACEFC"/>
<path d="M37 219L47.5 208H61V219H37Z" fill="#1C69B5"/>
<path d="M80 218.5V209.5V208H92V218.5H80Z" fill="#1C69B5"/>
<path d="M37 219L47.5 208H61V219H37Z" stroke="#3E9FFF"/>
<path d="M80 218.5V209.5V208H92V218.5H80Z" stroke="#3E9FFF"/>
<path d="M82.2692 20.2692C81.6333 22.4949 79.6197 24.3761 78.6923 25.0385C78.0299 25.3034 76.1487 25.9128 73.923 26.2308C71.1408 26.6282 67.564 23.4487 66.7691 22.6538C66.1332 22.018 65.1794 19.4744 64.782 18.2821H63.9871C63.5897 18.2821 63.1923 17.4872 62 16.6923C60.8077 15.8974 61.6026 15.1026 61.6026 13.9103C61.6026 12.7179 62.3974 11.9231 63.1923 11.5256C63.9872 11.1282 64.3846 11.1282 65.1795 11.1282C65.9744 11.1282 66.7692 11.5256 66.7692 11.1282C66.7692 10.7308 67.1667 10.7308 69.5513 9.14103C71.9359 7.55128 74.3205 7.55128 76.7051 7.94872C79.0897 8.34615 80.6795 10.7308 81.8718 12.7179C83.0641 14.7051 83.0641 17.4872 82.2692 20.2692Z" fill="white" stroke="#BACEFC"/>
<path d="M60.0129 108.897L46.1026 119.231C43.8505 117.376 38.7899 113.031 36.5642 110.487C33.7822 107.308 28.6154 102.141 25.0385 93C21.4616 83.859 23.4488 73.9231 25.0385 65.9743C26.6283 58.0256 36.5642 45.7051 43.3206 40.9359C48.7257 37.1205 59.3505 34.047 63.9872 32.9872C64.1197 33.5171 64.5436 34.8949 65.1795 36.1667C65.9744 37.7564 68.359 38.1538 70.3462 38.9487C72.3334 39.7436 74.718 37.7564 75.9103 36.1667C77.1026 34.5769 77.5001 32.5897 77.5001 32.5897C77.5001 32.5897 90.2181 34.1795 97.7693 38.1538C103.81 41.3333 109.56 50.6068 111.68 54.4487H88.6283V112.474H64.3847C63.1924 110.355 59.7744 105.162 55.6411 101.346C50.4744 96.5769 46.1026 88.2308 44.1154 82.6667C42.5257 78.2154 43.453 71.8034 44.1154 69.1538C43.1881 70.4786 41.3334 74.082 41.3334 77.8974C41.3334 82.6667 42.1283 84.6538 44.1154 89.4231C45.7052 93.2385 55.3761 103.996 60.0129 108.897Z" fill="#3E9FFF"/>
<path d="M65.5771 20.2692L64.7822 22.6538L62.0001 19.8718C60.4103 18.2821 59.6155 14.3077 60.0129 11.1282C60.4103 7.94872 61.6027 5.96154 64.7822 3.57692C67.9617 1.19231 71.936 0 76.3078 0C80.6796 0 83.0642 1.98718 83.0642 3.17949C83.0642 4.37179 83.0642 5.96154 81.8719 7.94872C80.918 9.53847 80.6796 10.7308 80.6796 11.1282C80.0172 10.3333 78.2155 8.58462 76.3078 7.94872C73.9232 7.15385 72.7308 7.55128 70.3462 8.34616C68.4385 8.98205 67.1667 10.7308 66.7693 11.5256C66.6368 11.5256 66.1334 11.4462 65.1796 11.1282C63.9873 10.7308 63.1925 11.1282 62.3976 11.9231C61.6027 12.718 61.2053 13.9103 61.6027 15.5C62.0002 17.0897 64.7822 17.8846 64.7822 18.6795C64.7822 19.3154 65.3121 20.0043 65.5771 20.2692Z" fill="#3E9FFF"/>
<path d="M68.7563 38.5513C65.8948 37.9154 64.3845 34.8419 63.9871 33.3846L64.3845 20.2692C64.6495 20.4017 65.4178 20.9846 66.3717 22.2564C67.564 23.8462 69.5512 24.641 71.9358 25.5849C73.8435 26.3401 76.705 25.8996 77.8973 25.5849V32.9872C77.8973 34.1795 76.705 35.3718 74.7178 37.7564C72.7306 40.141 72.3332 39.3462 68.7563 38.5513Z" fill="#F9F9F9" stroke="#BACEFC"/>
<rect x="89.0256" y="54.0513" width="168.513" height="159.769" fill="#CDE8FC"/>
<rect x="112.077" y="84.2564" width="121.615" height="19.8718" fill="white"/>
<rect x="112.077" y="109.692" width="121.615" height="19.8718" fill="white"/>
<rect x="112.077" y="139.103" width="121.615" height="19.8718" fill="white"/>
<path d="M269.461 217.41H228.923L223.359 181.244H274.231L269.461 217.41Z" fill="#3E9FFF" stroke="#267FD8"/>
<path d="M243.628 156.205C240.131 149.846 232.368 148.786 228.923 149.051V153.423C228.923 156.205 230.91 158.987 236.872 165.346C241.641 170.433 247.603 171.705 249.987 171.705C250.517 171.44 252.451 170.354 255.949 168.128C260.321 165.346 264.295 162.564 267.474 157C270.018 152.549 269.329 150.111 268.667 149.449C265.885 150.376 259.128 153.185 254.359 157C249.59 160.815 248.927 165.214 249.192 166.936C248.795 166.009 247.126 162.564 243.628 156.205Z" fill="#3E9FFF"/>
<line x1="233.251" y1="153.467" x2="246.764" y2="166.98" stroke="white"/>
<line x1="250.059" y1="166.954" x2="266.752" y2="152.646" stroke="white"/>
<g filter="url(#filter0_d_295_971)">
<rect x="219.385" y="171.308" width="59.6154" height="10.3333" fill="white"/>
<rect x="219.885" y="171.808" width="58.6154" height="9.33333" stroke="#C4D8E8"/>
</g>
<rect x="136.718" y="170.103" width="73.9231" height="20.6667" fill="#3E9FFF"/>
<defs>
<filter id="filter0_d_295_971" x="215.385" y="171.308" width="67.6155" height="18.3333" filterUnits="userSpaceOnUse" color-interpolation-filters="sRGB">
<feFlood flood-opacity="0" result="BackgroundImageFix"/>
<feColorMatrix in="SourceAlpha" type="matrix" values="0 0 0 0 0 0 0 0 0 0 0 0 0 0 0 0 0 0 127 0" result="hardAlpha"/>
<feOffset dy="4"/>
<feGaussianBlur stdDeviation="2"/>
<feComposite in2="hardAlpha" operator="out"/>
<feColorMatrix type="matrix" values="0 0 0 0 0 0 0 0 0 0 0 0 0 0 0 0 0 0 0.25 0"/>
<feBlend mode="normal" in2="BackgroundImageFix" result="effect1_dropShadow_295_971"/>
<feBlend mode="normal" in="SourceGraphic" in2="effect1_dropShadow_295_971" result="shape"/>
</filter>
</defs>
</svg>
