<svg width="16" height="15" viewBox="0 0 16 15" fill="none" xmlns="http://www.w3.org/2000/svg">
<path d="M15.2 5.28193L10.4911 4.59758L8.38613 0.330127C8.32864 0.213287 8.23405 0.118702 8.11721 0.0612089C7.82419 -0.0834504 7.4681 0.037099 7.32159 0.330127L5.21661 4.59758L0.507762 5.28193C0.37794 5.30047 0.259245 5.36167 0.168369 5.45441C0.0585056 5.56733 -0.00203433 5.71924 5.21996e-05 5.87678C0.00213873 6.03431 0.066681 6.18457 0.179497 6.29454L3.58641 9.61614L2.78151 14.3064C2.76263 14.4156 2.77471 14.5278 2.81636 14.6304C2.85802 14.733 2.92758 14.8218 3.01717 14.8869C3.10676 14.952 3.21279 14.9906 3.32324 14.9985C3.43369 15.0064 3.54413 14.9831 3.64205 14.9314L7.85386 12.717L12.0657 14.9314C12.1807 14.9926 12.3142 15.013 12.4422 14.9908C12.7649 14.9352 12.9818 14.6291 12.9262 14.3064L12.1213 9.61614L15.5282 6.29454C15.621 6.20367 15.6822 6.08497 15.7007 5.95515C15.7508 5.63059 15.5245 5.33015 15.2 5.28193Z" fill="#3E9FFF"/>
</svg>
