<svg width="13" height="13" viewBox="0 0 13 13" fill="none" xmlns="http://www.w3.org/2000/svg">
<path d="M6.5 13C5.21442 13 3.95771 12.6188 2.8888 11.9046C1.81988 11.1903 0.986755 10.1752 0.494786 8.98744C0.00281634 7.79972 -0.125905 6.49279 0.124899 5.23191C0.375702 3.97104 0.994767 2.81285 1.90381 1.90381C2.81285 0.994767 3.97104 0.375702 5.23191 0.124899C6.49279 -0.125905 7.79972 0.00281634 8.98744 0.494786C10.1752 0.986755 11.1903 1.81988 11.9046 2.8888C12.6188 3.95771 13 5.21442 13 6.5C13 8.22391 12.3152 9.87721 11.0962 11.0962C9.87721 12.3152 8.22391 13 6.5 13ZM6.5 0.928574C5.39808 0.928574 4.3209 1.25533 3.40468 1.86753C2.48847 2.47973 1.77436 3.34986 1.35267 4.36791C0.930986 5.38595 0.820653 6.50618 1.03563 7.58693C1.2506 8.66768 1.78123 9.66042 2.56041 10.4396C3.33959 11.2188 4.33232 11.7494 5.41307 11.9644C6.49382 12.1793 7.61405 12.069 8.63209 11.6473C9.65014 11.2256 10.5203 10.5115 11.1325 9.59532C11.7447 8.6791 12.0714 7.60193 12.0714 6.5C12.0714 5.02237 11.4844 3.60525 10.4396 2.56041C9.39475 1.51556 7.97764 0.928574 6.5 0.928574Z" fill="#AFAFAF"/>
<path d="M8.63112 9.2857L6.03577 6.69034V2.32141H6.96434V6.30498L9.28577 8.63105L8.63112 9.2857Z" fill="#AFAFAF"/>
</svg>
