<svg width="32" height="25" viewBox="0 0 32 25" fill="none" xmlns="http://www.w3.org/2000/svg">
<path fill-rule="evenodd" clip-rule="evenodd" d="M15.9162 0C20.7706 0 24.9148 3.05043 26.5412 7.3402C29.5774 8.14276 31.8182 10.9126 31.8182 14.2045C31.8182 18.1286 28.6399 21.3068 24.7195 21.3068H23.2955C23.1392 21.3068 23.0114 21.179 23.0114 21.0227V18.892C23.0114 18.7358 23.1392 18.608 23.2955 18.608H24.7195C25.2975 18.6095 25.87 18.4963 26.404 18.2751C26.938 18.0538 27.4227 17.7288 27.8303 17.3189C28.6612 16.4879 29.1193 15.38 29.1193 14.2045C29.1193 12.2088 27.7734 10.4581 25.8487 9.93963L24.5064 9.58452L24.0163 8.28835C23.7109 7.48224 23.2848 6.7223 22.7486 6.03693C22.2195 5.35866 21.5945 4.76207 20.8878 4.26491C19.4283 3.23864 17.7095 2.69531 15.9162 2.69531C14.1229 2.69531 12.4041 3.23864 10.9446 4.26491C10.2403 4.76048 9.61318 5.35763 9.08381 6.03693C8.54759 6.7223 8.12145 7.47869 7.81605 8.28835L7.32244 9.58807L5.97656 9.93963C5.05327 10.1847 4.2223 10.7351 3.62926 11.4915C3.05043 12.2337 2.73082 13.1143 2.69886 14.0518C2.6598 15.2521 3.10369 16.4098 3.93821 17.2692C4.77628 18.1321 5.90199 18.608 7.09872 18.608H8.52273C8.67898 18.608 8.80682 18.7358 8.80682 18.892V21.0227C8.80682 21.179 8.67898 21.3068 8.52273 21.3068H7.09872C3.17827 21.3068 0 18.1286 0 14.2045C0 10.9091 2.24787 8.13565 5.29119 7.33665C6.91761 3.04688 11.0618 0 15.9162 0ZM16.0336 10.5376C16.0724 10.5565 16.1064 10.584 16.1329 10.6179L20.1102 15.6534C20.2558 15.8381 20.1244 16.1115 19.8865 16.1115H17.2551V24.7159C17.2551 24.8722 17.1273 25 16.971 25H14.8403C14.6841 25 14.5562 24.8722 14.5562 24.7159V16.108H11.9319C11.8788 16.1081 11.8266 16.0933 11.7815 16.0651C11.7363 16.037 11.7 15.9968 11.6767 15.949C11.6534 15.9012 11.6439 15.8478 11.6495 15.7949C11.6551 15.742 11.6754 15.6918 11.7082 15.6499L15.6855 10.6179C15.7121 10.584 15.746 10.5565 15.7848 10.5376C15.8235 10.5187 15.8661 10.5089 15.9092 10.5089C15.9523 10.5089 15.9949 10.5187 16.0336 10.5376Z" fill="#1D9EF4"/>
</svg>
