<svg width="16" height="15" viewBox="0 0 16 15" fill="none" xmlns="http://www.w3.org/2000/svg">
<path fill-rule="evenodd" clip-rule="evenodd" d="M15 1.57895L1 1.57895C0.734784 1.57895 0.48043 1.49577 0.292894 1.34771C0.105357 1.19966 1.22402e-06 0.998853 1.24232e-06 0.789472C1.26063e-06 0.58009 0.105357 0.379284 0.292894 0.231229C0.48043 0.0831743 0.734784 -2.2882e-06 1 -2.26502e-06L15 -1.0411e-06C15.2652 -1.01791e-06 15.5196 0.0831756 15.7071 0.231231C15.8946 0.379286 16 0.580091 16 0.789474C16 0.998855 15.8946 1.19966 15.7071 1.34772C15.5196 1.49577 15.2652 1.57895 15 1.57895ZM7 6.17763L3.757 8.7371L2.343 7.62079L8 3.15474L13.657 7.62079L12.243 8.73711L9 6.17763L9 15L7 15L7 6.17763Z" fill="#3E9FFF"/>
</svg>
