<svg width="15" height="15" viewBox="0 0 15 15" fill="none" xmlns="http://www.w3.org/2000/svg">
<path d="M14.0065 7.30436C12.6023 4.70853 10.1398 3.1377 7.41484 3.1377C4.68984 3.1377 2.22318 4.70853 0.83151 7.30436L0.714844 7.5002L0.823177 7.70019C2.22734 10.296 4.68984 11.8669 7.41484 11.8669C10.1398 11.8669 12.6065 10.3169 14.0065 7.70019L14.1148 7.5002L14.0065 7.30436ZM7.41484 11.0127C5.06901 11.0127 2.91484 9.70436 1.66484 7.5002C2.91484 5.29603 5.06901 3.9877 7.41484 3.9877C9.76068 3.9877 11.8898 5.30019 13.1607 7.5002C11.8898 9.70436 9.75651 11.0127 7.41484 11.0127Z" fill="black"/>
<path d="M7.53997 10.371C9.11859 10.371 10.3983 9.09124 10.3983 7.51263C10.3983 5.93402 9.11859 4.6543 7.53997 4.6543C5.96136 4.6543 4.68164 5.93402 4.68164 7.51263C4.68164 9.09124 5.96136 10.371 7.53997 10.371Z" fill="black"/>
</svg>
