<svg width="20" height="20" viewBox="0 0 20 20" fill="none" xmlns="http://www.w3.org/2000/svg">
<path d="M0.424836 9.91308C0.42437 11.599 0.864896 13.2453 1.70255 14.6963L0.344727 19.6539L5.41825 18.3236C6.82151 19.0875 8.39377 19.4878 9.9915 19.4879H9.9957C15.2701 19.4879 19.5636 15.196 19.5659 9.92062C19.5669 7.36434 18.5723 4.96058 16.7652 3.15212C14.9585 1.34381 12.5556 0.347419 9.99532 0.346252C4.72028 0.346252 0.427092 4.63796 0.424914 9.91308" fill="url(#paint0_linear_295_952)"/>
<path d="M0.0832209 9.90997C0.0826764 11.6566 0.538991 13.3617 1.40651 14.8646L0 20L5.25544 18.622C6.70348 19.4115 8.33383 19.8278 9.99281 19.8284H9.99708C15.4607 19.8284 19.9085 15.3821 19.9108 9.91791C19.9117 7.26977 18.8813 4.7796 17.0097 2.90635C15.1379 1.03334 12.649 0.00108887 9.99708 0C4.5325 0 0.0854764 4.44571 0.0832987 9.90997H0.0832209ZM3.21295 14.6058L3.01672 14.2943C2.19182 12.9827 1.75643 11.467 1.75705 9.9106C1.75884 5.36884 5.45509 1.67375 10.0002 1.67375C12.2013 1.67468 14.2698 2.53271 15.8257 4.08949C17.3814 5.64642 18.2375 7.71605 18.237 9.91728C18.2349 14.459 14.5386 18.1546 9.99708 18.1546H9.99382C8.51505 18.1538 7.06475 17.7567 5.79995 17.0062L5.49896 16.8277L2.38027 17.6454L3.21295 14.6057V14.6058Z" fill="url(#paint1_linear_295_952)"/>
<path d="M7.51934 5.76696C7.33377 5.35451 7.13847 5.34619 6.962 5.33895C6.81749 5.33273 6.65229 5.3332 6.48725 5.3332C6.32205 5.3332 6.05364 5.39534 5.82677 5.64306C5.59966 5.89101 4.95972 6.4902 4.95972 7.70888C4.95972 8.92764 5.84738 10.1054 5.97112 10.2708C6.09502 10.436 7.68477 13.0169 10.2026 14.0098C12.2951 14.8349 12.7209 14.6708 13.175 14.6294C13.6292 14.5882 14.6406 14.0304 14.847 13.452C15.0535 12.8736 15.0535 12.3779 14.9916 12.2743C14.9297 12.1711 14.7645 12.1091 14.5167 11.9853C14.2689 11.8614 13.0511 11.2621 12.8241 11.1794C12.597 11.0968 12.4319 11.0556 12.2667 11.3036C12.1015 11.5513 11.6271 12.1091 11.4825 12.2743C11.3381 12.4399 11.1935 12.4605 10.9459 12.3366C10.698 12.2123 9.90024 11.951 8.95377 11.1072C8.21739 10.4507 7.72024 9.63984 7.57573 9.39181C7.43122 9.14417 7.56025 9.00993 7.68446 8.8865C7.79576 8.77551 7.93226 8.59725 8.05623 8.45266C8.17974 8.308 8.22096 8.20479 8.30356 8.03959C8.38624 7.87424 8.34486 7.72957 8.28303 7.60567C8.22096 7.48178 7.73961 6.2568 7.51934 5.76704" fill="white"/>
<defs>
<linearGradient id="paint0_linear_295_952" x1="9.9553" y1="19.6539" x2="9.9553" y2="0.346252" gradientUnits="userSpaceOnUse">
<stop stop-color="#1FAF38"/>
<stop offset="1" stop-color="#60D669"/>
</linearGradient>
<linearGradient id="paint1_linear_295_952" x1="9.95539" y1="20" x2="9.95539" y2="0" gradientUnits="userSpaceOnUse">
<stop stop-color="#F9F9F9"/>
<stop offset="1" stop-color="white"/>
</linearGradient>
</defs>
</svg>
